<?xml version="1.0" encoding="UTF-8"?>
<svg version="1.1" xmlns="http://www.w3.org/2000/svg" width="225" height="225">
<path d="M0 0 C4.56646188 3.3058363 6.37784229 8.57006462 8.625 13.5625 C9.40682604 15.27306384 10.19060177 16.98273825 10.9765625 18.69140625 C11.31768066 19.44623291 11.65879883 20.20105957 12.01025391 20.97875977 C13.05620967 23.22759862 13.05620967 23.22759862 15 26 C17.72618823 25.52216258 20.2563855 24.91349595 22.8828125 24.02734375 C38.0181629 18.93967777 52.48208462 19.32132098 67 26 C67.66 26.33 68.32 26.66 69 27 C69.25007812 26.3503125 69.50015625 25.700625 69.7578125 25.03125 C71.35470528 21.13442989 73.10082875 17.31875522 74.875 13.5 C75.38353516 12.38044922 75.38353516 12.38044922 75.90234375 11.23828125 C80.72927254 0.86864336 80.72927254 0.86864336 85.4609375 -0.94140625 C88.49066045 -1.01132293 89.97583458 -0.3861239 92.625 1.0625 C93.92050781 1.75859375 93.92050781 1.75859375 95.2421875 2.46875 C96.15226563 2.9740625 97.06234375 3.479375 98 4 C99.42699219 4.75796875 99.42699219 4.75796875 100.8828125 5.53125 C115.76551378 13.47950463 115.76551378 13.47950463 118 19 C117.73209154 24.70142691 115.12773629 28.45819696 112.0625 33.0625 C107.96957536 39.23483475 107.96957536 39.23483475 105 46 C105.85722656 46.4125 106.71445313 46.825 107.59765625 47.25 C115.82531772 51.40557197 122.33475597 55.43775159 126.4375 64 C127.81643046 71.35429579 126.651645 77.80354681 125 85 C126.19496094 85.07347656 126.19496094 85.07347656 127.4140625 85.1484375 C137.93848858 85.89103691 137.93848858 85.89103691 143 88 C142.43608417 93.52428657 139.22800958 97.39236928 136.0625 101.74023438 C134.04278077 104.68297816 132.98943756 106.50418687 133.06640625 110.1171875 C134.00182053 113.00562154 135.11218408 115.52238955 136.5625 118.1875 C139 122.68271955 139 122.68271955 139 126 C136.59940183 127.20029908 135.10639351 127.11459743 132.4296875 127.09765625 C131.53378906 127.09443359 130.63789063 127.09121094 129.71484375 127.08789062 C128.77769531 127.07951172 127.84054688 127.07113281 126.875 127.0625 C125.93011719 127.05798828 124.98523438 127.05347656 124.01171875 127.04882812 C121.67441613 127.03702357 119.33723939 127.02055759 117 127 C117.27242617 128.9815616 117.27242617 128.9815616 118 131 C119.98248715 131.71706982 121.98415349 132.38290413 124 133 C126.1519437 136.22791555 126.20086443 137.28400809 126 141 C126.99 141.33 127.98 141.66 129 142 C129 142.33 129 142.66 129 143 C112.17 143 95.34 143 78 143 C78 142.67 78 142.34 78 142 C85.26 141.67 92.52 141.34 100 141 C100 137.7 100 134.4 100 131 C101.98 131 103.96 131 106 131 C106.33 129.68 106.66 128.36 107 127 C101.72 127.33 96.44 127.66 91 128 C91.99 128.33 92.98 128.66 94 129 C93.76831055 130.87573242 93.76831055 130.87573242 93 133 C91.14770508 134.1184082 91.14770508 134.1184082 88.70703125 134.98828125 C87.80162598 135.31779785 86.8962207 135.64731445 85.96337891 135.98681641 C84.98546387 136.32116699 84.00754883 136.65551758 83 137 C82.01306152 137.34595215 81.02612305 137.6919043 80.00927734 138.04833984 C76.90968055 139.11912763 73.80085246 140.15744608 70.6875 141.1875 C69.62982422 141.54263672 68.57214844 141.89777344 67.48242188 142.26367188 C65.95004883 142.77317383 65.95004883 142.77317383 64.38671875 143.29296875 C63.47108154 143.5974292 62.55544434 143.90188965 61.61206055 144.21557617 C54.52780693 146.34303732 47.51922669 146.25586549 40.18286133 146.29516602 C38.6983889 146.30662601 37.21395571 146.32698209 35.72973633 146.35668945 C26.12041664 146.54855429 17.98258029 145.7555763 9 142 C7.58400513 141.45146362 7.58400513 141.45146362 6.1394043 140.8918457 C3.36437878 139.80463607 0.61942836 138.66201952 -2.125 137.5 C-3.05570313 137.12230469 -3.98640625 136.74460938 -4.9453125 136.35546875 C-5.8321875 135.98035156 -6.7190625 135.60523438 -7.6328125 135.21875 C-8.42574707 134.88810547 -9.21868164 134.55746094 -10.03564453 134.21679688 C-12.36422044 132.77438793 -13.01679125 131.51712005 -14 129 C-9.70594898 127.85491973 -5.61078581 127.95686271 -1.20703125 128.0625 C1.04339196 128.15401886 1.04339196 128.15401886 3 127 C-5.91 127 -14.82 127 -24 127 C-22.60804085 129.7839183 -20.84424221 129.97898997 -18 131 C-16.875 137.625 -16.875 137.625 -18 141 C-16.87464844 140.98259766 -16.87464844 140.98259766 -15.7265625 140.96484375 C-9.07662583 140.9062171 -2.59995127 141.18230692 4 142 C4 142.66 4 143.32 4 144 C-12.83 143.67 -29.66 143.34 -47 143 C-46.01 142.01 -45.02 141.02 -44 140 C-43.7834375 138.7934375 -43.7834375 138.7934375 -43.5625 137.5625 C-42.53674088 132.88959733 -38.6700942 130.72371771 -35 128 C-36.21558594 128.08378906 -37.43117188 128.16757813 -38.68359375 128.25390625 C-40.26821121 128.35704703 -41.85284765 128.45989661 -43.4375 128.5625 C-44.23994141 128.61857422 -45.04238281 128.67464844 -45.86914062 128.73242188 C-47.91062111 128.8616295 -49.95546369 128.9351273 -52 129 C-52.33 128.67 -52.66 128.34 -53 128 C-52.66626903 121.99284252 -51.06528443 117.14866049 -48.7421875 111.61328125 C-47.86915821 108.53929917 -47.92805204 107.00242438 -49 104 C-50.75524862 101.87412383 -50.75524862 101.87412383 -52.9375 100 C-56.06255582 97.1868826 -57.67003467 95.01078549 -59 91 C-58 90 -58 90 -56.23413086 89.88647461 C-55.48526611 89.89171143 -54.73640137 89.89694824 -53.96484375 89.90234375 C-53.15595703 89.90556641 -52.34707031 89.90878906 -51.51367188 89.91210938 C-50.66353516 89.92048828 -49.81339844 89.92886719 -48.9375 89.9375 C-48.08349609 89.94201172 -47.22949219 89.94652344 -46.34960938 89.95117188 C-44.23304337 89.96299627 -42.11651315 89.98093231 -40 90 C-40.33 89.01 -40.66 88.02 -41 87 C-41.36955834 83.94800381 -41.51195107 80.88109523 -41.6875 77.8125 C-41.74744141 76.98685547 -41.80738281 76.16121094 -41.86914062 75.31054688 C-42.3763033 66.49425332 -40.84629022 60.04723043 -35.14453125 53.12109375 C-31.61385631 49.62900542 -26.19786362 45 -21 45 C-21.61488281 44.05898437 -22.22976562 43.11796875 -22.86328125 42.1484375 C-23.67985156 40.8907315 -24.49624861 39.632913 -25.3125 38.375 C-25.71662109 37.75753906 -26.12074219 37.14007813 -26.53710938 36.50390625 C-33.42489994 25.86422977 -33.42489994 25.86422977 -33.5 19.875 C-33.5309375 19.04742187 -33.561875 18.21984375 -33.59375 17.3671875 C-32.71938303 13.88122444 -30.95972902 12.95582093 -28 11 C-25.77813753 9.80051628 -23.52532443 8.65718386 -21.25 7.5625 C-16.33085571 5.18760746 -11.58191259 2.67566739 -6.96484375 -0.25 C-4.21978119 -1.29781712 -2.75730937 -0.96355273 0 0 Z M-3 12 C-3.26761355 15.95642307 -2.7067837 18.08814848 -0.59375 21.42578125 C0.15068359 22.61977539 0.15068359 22.61977539 0.91015625 23.83789062 C1.43480469 24.65451172 1.95945312 25.47113281 2.5 26.3125 C3.28697266 27.56643555 3.28697266 27.56643555 4.08984375 28.84570312 C5.38340129 30.90363557 6.68691408 32.95449406 8 35 C8.66 34.67 9.32 34.34 10 34 C8.65674476 28.38606914 6.51249559 23.96622685 3.5 19.0625 C2.89478516 18.03672852 2.89478516 18.03672852 2.27734375 16.99023438 C1.2467162 15.28782814 0.1300256 13.63811547 -1 12 C-1.66 12 -2.32 12 -3 12 Z M85 12 C83.56805405 14.03753976 82.27110673 16.05286967 81 18.1875 C80.64421875 18.76564453 80.2884375 19.34378906 79.921875 19.93945312 C77.94747932 23.19941614 76.29604594 26.41562296 75 30 C76.87023593 29.97624064 76.87023593 29.97624064 79 29 C80.60107723 26.9051599 81.9269372 24.94405711 83.25 22.6875 C83.61351562 22.10548828 83.97703125 21.52347656 84.3515625 20.92382812 C86.36155377 17.587696 87 15.99664858 87 12 C86.34 12 85.68 12 85 12 Z M-12 16 C-11.80622391 24.52614805 -6.43228303 32.6421045 -1 39 C-0.34 39 0.32 39 1 39 C0.49058206 33.42275191 -1.63875088 29.4456294 -4.375 24.6875 C-4.77460937 23.95982422 -5.17421875 23.23214844 -5.5859375 22.48242188 C-6.17375 21.44504883 -6.17375 21.44504883 -6.7734375 20.38671875 C-7.30590088 19.44638794 -7.30590088 19.44638794 -7.84912109 18.48706055 C-9.02525862 16.68230392 -9.02525862 16.68230392 -12 16 Z M94 16 C90.75482737 18.71595986 89.14105304 22.27418003 87.3125 26 C86.99216797 26.6290625 86.67183594 27.258125 86.34179688 27.90625 C84.90688098 30.79443893 84 32.73246861 84 36 C85.89007856 35.92902069 85.89007856 35.92902069 88 35 C89.9939099 32.4572229 89.9939099 32.4572229 91.6875 29.3125 C92.28949219 28.27738281 92.89148438 27.24226563 93.51171875 26.17578125 C94.9818233 23.03878651 95.61480916 20.4256305 96 17 C95.34 16.67 94.68 16.34 94 16 Z M-19 21 C-18.42676628 25.21135709 -16.99298383 28.01294352 -14.6875 31.5625 C-14.09324219 32.49191406 -13.49898437 33.42132813 -12.88671875 34.37890625 C-11.10083598 36.85991523 -9.22512921 38.91240637 -7 41 C-7.59559106 36.13127946 -9.72477415 32.40671159 -12.0625 28.1875 C-12.43955078 27.49462891 -12.81660156 26.80175781 -13.20507812 26.08789062 C-14.13083852 24.38871015 -15.06462312 22.69390575 -16 21 C-16.99 21 -17.98 21 -19 21 Z M103 21 C101.5070269 23.07899218 101.5070269 23.07899218 100.0625 25.6875 C99.55847656 26.55761719 99.05445313 27.42773438 98.53515625 28.32421875 C98.02855469 29.20722656 97.52195313 30.09023437 97 31 C96.13181641 32.33998047 96.13181641 32.33998047 95.24609375 33.70703125 C94.83488281 34.46371094 94.42367187 35.22039062 94 36 C94.33 36.66 94.66 37.32 95 38 C99.13534955 34.21910898 102.60980113 30.11604268 105 25 C105 23.68 105 22.36 105 21 C104.34 21 103.68 21 103 21 Z " fill="#060504" transform="translate(70,49)"/>
<path d="M0 0 C1.56277428 -0.00503792 1.56277428 -0.00503792 3.15711975 -0.01017761 C6.57603165 -0.01962038 9.99489426 -0.02162703 13.41381836 -0.02270508 C15.80317708 -0.02592115 18.19253561 -0.02928548 20.58189392 -0.03279114 C25.57901466 -0.03876486 30.57611814 -0.04063273 35.57324219 -0.04003906 C41.96756252 -0.03993728 48.36177223 -0.05361446 54.75606632 -0.07081127 C59.68636074 -0.08194047 64.61662843 -0.08395802 69.54693413 -0.08342934 C71.90437643 -0.0846071 74.26181947 -0.0890174 76.61924934 -0.0967617 C79.91681783 -0.10658463 83.2141462 -0.10367485 86.51171875 -0.09765625 C87.4786969 -0.10327576 88.44567505 -0.10889526 89.44195557 -0.11468506 C95.03356225 -0.08881826 99.82328093 0.55896865 105.19116211 2.14526367 C103.41652182 7.10170853 100.64576007 11.03387109 97.65209961 15.32885742 C95.93604701 18.63707647 95.73768602 20.4643886 96.19116211 24.14526367 C97.23186938 26.87241596 97.23186938 26.87241596 98.69116211 29.39526367 C101.19116211 33.97859701 101.19116211 33.97859701 101.19116211 36.14526367 C100.28014488 36.14388098 100.28014488 36.14388098 99.35072327 36.14247036 C84.35705806 36.12008228 69.36339822 36.10369389 54.36972046 36.0934515 C47.1179747 36.08836279 39.86624043 36.08143893 32.61450195 36.06982422 C-25.62468059 35.87871416 -25.62468059 35.87871416 -83.80883789 38.14526367 C-82.40065395 33.27154903 -80.98248048 28.46856125 -79.05883789 23.77026367 C-77.63807965 19.81768351 -77.63807965 19.81768351 -78.80883789 16.14526367 C-80.57808282 13.9763885 -80.57808282 13.9763885 -82.74633789 11.95776367 C-83.45661133 11.26295898 -84.16688477 10.5681543 -84.89868164 9.85229492 C-86.70483576 8.08787293 -86.70483576 8.08787293 -88.80883789 7.14526367 C-89.13883789 7.80526367 -89.46883789 8.46526367 -89.80883789 9.14526367 C-91.37133789 7.33276367 -91.37133789 7.33276367 -92.80883789 5.14526367 C-92.47883789 4.15526367 -92.14883789 3.16526367 -91.80883789 2.14526367 C-87.18883789 2.14526367 -82.56883789 2.14526367 -77.80883789 2.14526367 C-77.80883789 2.47526367 -77.80883789 2.80526367 -77.80883789 3.14526367 C-81.76883789 3.14526367 -85.72883789 3.14526367 -89.80883789 3.14526367 C-89.80883789 3.80526367 -89.80883789 4.46526367 -89.80883789 5.14526367 C-89.30280029 4.99057617 -88.7967627 4.83588867 -88.27539062 4.67651367 C-84.98246597 3.96727839 -81.69825837 3.81576853 -78.34399414 3.64526367 C-77.6064238 3.60497543 -76.86885345 3.56468719 -76.1089325 3.5231781 C-73.69660556 3.39297054 -71.28400956 3.26890581 -68.87133789 3.14526367 C-67.20304087 3.05685529 -65.53474662 2.96839456 -63.86645508 2.87988281 C-52.26001164 2.27433472 -40.65384141 1.80265428 -29.03564453 1.48706055 C-27.94501709 1.45547852 -26.85438965 1.42389648 -25.73071289 1.39135742 C-24.79839844 1.3674292 -23.86608398 1.34350098 -22.90551758 1.31884766 C-20.49522942 1.18373926 -18.18044224 0.94817233 -15.79084778 0.64349365 C-10.51990566 0.05118922 -5.29962936 -0.00248895 0 0 Z " fill="#EEAA41" transform="translate(103.808837890625,136.854736328125)"/>
<path d="M0 0 C4.56646188 3.3058363 6.37784229 8.57006462 8.625 13.5625 C9.40682604 15.27306384 10.19060177 16.98273825 10.9765625 18.69140625 C11.48823975 19.82364624 11.48823975 19.82364624 12.01025391 20.97875977 C13.05620967 23.22759862 13.05620967 23.22759862 15 26 C17.72618823 25.52216258 20.2563855 24.91349595 22.8828125 24.02734375 C36.92177147 19.30822381 50.63185639 19.21247944 64.41015625 24.7109375 C67 26 67 26 69 28 C67.89978516 29.30324219 67.89978516 29.30324219 66.77734375 30.6328125 C65.82980722 31.79612467 64.88324311 32.96022936 63.9375 34.125 C63.45216797 34.69476563 62.96683594 35.26453125 62.46679688 35.8515625 C60.04928491 38.86916609 59.00774603 40.28306153 58.96484375 44.25390625 C60.1172855 47.31113851 60.91109363 48.10955078 63.625 49.8125 C66.91321327 52.34086031 66.91321327 52.34086031 67.30859375 55.34375 C67.07383216 57.69881862 66.79372878 59.76910551 66 62 C65.01 62.495 65.01 62.495 64 63 C63.92910156 62.39671875 63.85820312 61.7934375 63.78515625 61.171875 C62.70384076 58.18077346 61.23061543 57.66622754 58.4375 56.25 C57.61121094 55.82203125 56.78492187 55.3940625 55.93359375 54.953125 C55.29550781 54.63859375 54.65742187 54.3240625 54 54 C53.92345464 49.48382401 53.89771304 45.40914783 55 41 C49.77778162 37.1438115 44.69136765 34.01436483 38 35 C34.4060891 36.65872811 31.20782686 38.68956103 28 41 C28.15339844 41.56203125 28.30679688 42.1240625 28.46484375 42.703125 C29.01360419 45.05838878 29.31497599 47.34548104 29.5625 49.75 C29.64628906 50.54921875 29.73007813 51.3484375 29.81640625 52.171875 C29.87699219 52.77515625 29.93757813 53.3784375 30 54 C29.36191406 54.21914062 28.72382812 54.43828125 28.06640625 54.6640625 C25.55695588 55.6271277 23.28375825 56.57803731 21 58 C19.78209281 61.116025 19.78209281 61.116025 20 64 C18 63 18 63 16.8125 60.75 C15.83133414 57.42913093 15.69563199 56.22255625 17 53 C18.76236572 51.20812098 20.57459242 49.5524027 22.50390625 47.94140625 C24.23347283 46.01631259 24.23347283 46.01631259 24.46484375 43.10546875 C23.88735008 39.24742283 22.56450839 37.65288103 20 34.75 C16 30.16666667 16 30.16666667 16 28 C15.01 28.495 15.01 28.495 14 29 C14.48210937 29.61488281 14.96421875 30.22976562 15.4609375 30.86328125 C16.09257813 31.67152344 16.72421875 32.47976562 17.375 33.3125 C18.00148437 34.11300781 18.62796875 34.91351563 19.2734375 35.73828125 C22.92834739 40.52604782 22.92834739 40.52604782 23.375 43.48046875 C23 46 23 46 21.25 47.80078125 C20.5075 48.29964844 19.765 48.79851562 19 49.3125 C18.2575 49.82425781 17.515 50.33601563 16.75 50.86328125 C16.1725 51.23839844 15.595 51.61351562 15 52 C15.45353635 63.7919452 22.57029931 73.21506999 29.2421875 82.48046875 C31 85 31 85 31 86 C28.31640625 86.3984375 28.31640625 86.3984375 25 86 C22.95785716 83.86880131 21.51567186 82.06262812 19.9375 79.625 C19.50775879 78.99319824 19.07801758 78.36139648 18.63525391 77.71044922 C15.29295151 72.70269921 12.41626936 67.5192679 10 62 C10.33 63.65 10.66 65.3 11 67 C6.48922414 69.94935345 6.48922414 69.94935345 4 71 C1.875 70.3125 1.875 70.3125 0 69 C-2.30371421 67.82221688 -2.30371421 67.82221688 -5 68 C-9.13221239 70.39510399 -11.6486741 72.73522675 -12.9375 77.375 C-12.958125 78.24125 -12.97875 79.1075 -13 80 C-12.01 80 -11.02 80 -10 80 C-8.39453125 81.75 -8.39453125 81.75 -6.8125 84 C-6.28269531 84.7425 -5.75289062 85.485 -5.20703125 86.25 C-4.80871094 86.8275 -4.41039062 87.405 -4 88 C-8.00165136 88.28799328 -12.00352216 88.5727019 -16.00561523 88.85449219 C-17.36440188 88.95061525 -18.72312759 89.04760416 -20.08178711 89.14550781 C-22.04524376 89.28683631 -24.00894909 89.42469599 -25.97265625 89.5625 C-27.15093994 89.64628906 -28.32922363 89.73007813 -29.54321289 89.81640625 C-33.03581613 90.00190223 -36.50318068 90.03123903 -40 90 C-41.34919008 85.95242975 -41.44489683 82.05320344 -41.6875 77.8125 C-41.77741211 76.5740332 -41.77741211 76.5740332 -41.86914062 75.31054688 C-42.3763033 66.49425332 -40.84629022 60.04723043 -35.14453125 53.12109375 C-31.61385631 49.62900542 -26.19786362 45 -21 45 C-21.61488281 44.05898437 -22.22976562 43.11796875 -22.86328125 42.1484375 C-23.67985156 40.8907315 -24.49624861 39.632913 -25.3125 38.375 C-25.71662109 37.75753906 -26.12074219 37.14007813 -26.53710938 36.50390625 C-33.42489994 25.86422977 -33.42489994 25.86422977 -33.5 19.875 C-33.5309375 19.04742187 -33.561875 18.21984375 -33.59375 17.3671875 C-32.71938303 13.88122444 -30.95972902 12.95582093 -28 11 C-25.77813753 9.80051628 -23.52532443 8.65718386 -21.25 7.5625 C-16.33085571 5.18760746 -11.58191259 2.67566739 -6.96484375 -0.25 C-4.21978119 -1.29781712 -2.75730937 -0.96355273 0 0 Z M-3 12 C-3.26761355 15.95642307 -2.7067837 18.08814848 -0.59375 21.42578125 C0.15068359 22.61977539 0.15068359 22.61977539 0.91015625 23.83789062 C1.43480469 24.65451172 1.95945312 25.47113281 2.5 26.3125 C3.28697266 27.56643555 3.28697266 27.56643555 4.08984375 28.84570312 C5.38340129 30.90363557 6.68691408 32.95449406 8 35 C8.66 34.67 9.32 34.34 10 34 C8.65674476 28.38606914 6.51249559 23.96622685 3.5 19.0625 C2.89478516 18.03672852 2.89478516 18.03672852 2.27734375 16.99023438 C1.2467162 15.28782814 0.1300256 13.63811547 -1 12 C-1.66 12 -2.32 12 -3 12 Z M-12 16 C-11.80622391 24.52614805 -6.43228303 32.6421045 -1 39 C-0.34 39 0.32 39 1 39 C0.49058206 33.42275191 -1.63875088 29.4456294 -4.375 24.6875 C-4.77460937 23.95982422 -5.17421875 23.23214844 -5.5859375 22.48242188 C-6.17375 21.44504883 -6.17375 21.44504883 -6.7734375 20.38671875 C-7.30590088 19.44638794 -7.30590088 19.44638794 -7.84912109 18.48706055 C-9.02525862 16.68230392 -9.02525862 16.68230392 -12 16 Z M-19 21 C-18.42676628 25.21135709 -16.99298383 28.01294352 -14.6875 31.5625 C-14.09324219 32.49191406 -13.49898437 33.42132813 -12.88671875 34.37890625 C-11.10083598 36.85991523 -9.22512921 38.91240637 -7 41 C-7.59559106 36.13127946 -9.72477415 32.40671159 -12.0625 28.1875 C-12.43955078 27.49462891 -12.81660156 26.80175781 -13.20507812 26.08789062 C-14.13083852 24.38871015 -15.06462312 22.69390575 -16 21 C-16.99 21 -17.98 21 -19 21 Z " fill="#4A4849" transform="translate(70,49)"/>
<path d="M0 0 C2.57294212 1.26226519 4.96228711 2.76971438 7.375 4.3125 C8.69909193 5.13641539 10.02460101 5.95805796 11.3515625 6.77734375 C11.98094727 7.16647949 12.61033203 7.55561523 13.25878906 7.95654297 C15.36787184 9.22045488 17.52873411 10.32216951 19.75 11.375 C23.55174193 13.27587097 25.45049069 14.5918824 27 18.5625 C27 27.89563037 19.08805159 36.65199498 14 44 C12.68 43.67 11.36 43.34 10 43 C9.77570313 43.67417969 9.55140625 44.34835938 9.3203125 45.04296875 C7.62409831 48.84188632 5.33164843 51.97159576 2.875 55.3125 C2.40707031 55.95767578 1.93914062 56.60285156 1.45703125 57.26757812 C0.3094071 58.84848894 -0.84465477 60.42472301 -2 62 C-6.7421875 61.1953125 -6.7421875 61.1953125 -9.0625 59.4375 C-11.13330995 57.60276872 -11.13330995 57.60276872 -15 58 C-15.556875 59.02738281 -16.11375 60.05476563 -16.6875 61.11328125 C-20.3015316 67.71122196 -23.97304141 74.26390557 -28.1875 80.5 C-28.77917969 81.3765625 -29.37085938 82.253125 -29.98046875 83.15625 C-32 85 -32 85 -35.23828125 85.28125 C-36.14964844 85.1884375 -37.06101562 85.095625 -38 85 C-37.56429687 84.32195312 -37.12859375 83.64390625 -36.6796875 82.9453125 C-27.481128 69.39584038 -27.481128 69.39584038 -21.3125 54.375 C-22.1997527 51.3099452 -23.21531492 51.09921738 -25.9375 49.5625 C-28.84460222 47.88272537 -29.84994402 47.27510262 -31.5 44.25 C-30.79220561 39.64933648 -28.25775971 37.53921319 -25.08203125 34.2578125 C-22.4262926 31.37785576 -20.77432839 28.47472644 -19 25 C-19.99 25.66 -20.98 26.32 -22 27 C-20.23294031 22.40928824 -18.19656667 17.95887398 -16.125 13.5 C-15.78597656 12.75363281 -15.44695312 12.00726563 -15.09765625 11.23828125 C-8.84006186 -2.20483978 -8.84006186 -2.20483978 0 0 Z M-6 12 C-7.43194595 14.03753976 -8.72889327 16.05286967 -10 18.1875 C-10.35578125 18.76564453 -10.7115625 19.34378906 -11.078125 19.93945312 C-13.05252068 23.19941614 -14.70395406 26.41562296 -16 30 C-14.12976407 29.97624064 -14.12976407 29.97624064 -12 29 C-10.39892277 26.9051599 -9.0730628 24.94405711 -7.75 22.6875 C-7.38648438 22.10548828 -7.02296875 21.52347656 -6.6484375 20.92382812 C-4.63844623 17.587696 -4 15.99664858 -4 12 C-4.66 12 -5.32 12 -6 12 Z M3 16 C-0.24517263 18.71595986 -1.85894696 22.27418003 -3.6875 26 C-4.00783203 26.6290625 -4.32816406 27.258125 -4.65820312 27.90625 C-6.09311902 30.79443893 -7 32.73246861 -7 36 C-5.10992144 35.92902069 -5.10992144 35.92902069 -3 35 C-1.0060901 32.4572229 -1.0060901 32.4572229 0.6875 29.3125 C1.28949219 28.27738281 1.89148438 27.24226563 2.51171875 26.17578125 C3.9818233 23.03878651 4.61480916 20.4256305 5 17 C4.34 16.67 3.68 16.34 3 16 Z M12 21 C10.5070269 23.07899218 10.5070269 23.07899218 9.0625 25.6875 C8.55847656 26.55761719 8.05445313 27.42773438 7.53515625 28.32421875 C7.02855469 29.20722656 6.52195313 30.09023437 6 31 C5.13181641 32.33998047 5.13181641 32.33998047 4.24609375 33.70703125 C3.83488281 34.46371094 3.42367187 35.22039062 3 36 C3.33 36.66 3.66 37.32 4 38 C8.13534955 34.21910898 11.60980113 30.11604268 14 25 C14 23.68 14 22.36 14 21 C13.34 21 12.68 21 12 21 Z " fill="#4B494A" transform="translate(161,49)"/>
<path d="M0 0 C1.25824742 0.00276538 1.25824742 0.00276538 2.54191399 0.00558662 C3.50387688 0.0028373 4.46583977 0.00008797 5.45695305 -0.00274467 C6.51574669 0.00444588 7.57454033 0.01163643 8.66541862 0.01904488 C9.77761772 0.01875282 10.88981682 0.01846077 12.03571892 0.01815987 C15.72600313 0.01955747 19.41608749 0.03513904 23.10633659 0.05078316 C25.65938519 0.05451175 28.21243522 0.05735945 30.76548576 0.0593586 C36.80742348 0.06622463 42.84927491 0.0820007 48.89117801 0.10205758 C55.76895519 0.12439474 62.64673578 0.1354045 69.52454019 0.14544845 C83.67424149 0.16636637 97.82387885 0.20155597 111.97352409 0.24609566 C112.30352409 1.89609566 112.63352409 3.54609566 112.97352409 5.24609566 C113.92227409 5.51422066 114.87102409 5.78234566 115.84852409 6.05859566 C118.97352409 7.24609566 118.97352409 7.24609566 120.97352409 10.24609566 C121.09852409 12.93359566 121.09852409 12.93359566 120.97352409 15.24609566 C121.96352409 15.57609566 122.95352409 15.90609566 123.97352409 16.24609566 C123.97352409 16.57609566 123.97352409 16.90609566 123.97352409 17.24609566 C107.14352409 17.24609566 90.31352409 17.24609566 72.97352409 17.24609566 C72.97352409 16.91609566 72.97352409 16.58609566 72.97352409 16.24609566 C80.23352409 15.91609566 87.49352409 15.58609566 94.97352409 15.24609566 C94.97352409 11.94609566 94.97352409 8.64609566 94.97352409 5.24609566 C96.95352409 5.24609566 98.93352409 5.24609566 100.97352409 5.24609566 C101.30352409 3.92609566 101.63352409 2.60609566 101.97352409 1.24609566 C94.05352409 1.74109566 94.05352409 1.74109566 85.97352409 2.24609566 C86.96352409 2.57609566 87.95352409 2.90609566 88.97352409 3.24609566 C88.74183464 5.12182808 88.74183464 5.12182808 87.97352409 7.24609566 C86.12122917 8.36450386 86.12122917 8.36450386 83.68055534 9.23437691 C82.77515007 9.56389351 81.8697448 9.89341011 80.936903 10.23291206 C79.95898796 10.56726265 78.98107292 10.90161324 77.97352409 11.24609566 C76.98658562 11.59204781 75.99964714 11.93799995 74.98280144 12.2944355 C71.88320464 13.36522329 68.77437655 14.40354174 65.66102409 15.43359566 C64.60334831 15.78873238 63.54567253 16.14386909 62.45594597 16.50976753 C61.43436394 16.8494355 60.41278191 17.18910347 59.36024284 17.53906441 C58.44460564 17.84352486 57.52896843 18.14798531 56.58558464 18.46167183 C49.50133102 20.58913298 42.49275078 20.50196115 35.15638542 20.54126167 C33.671913 20.55272166 32.18747981 20.57307774 30.70326042 20.60278511 C21.09394074 20.79464994 12.95610438 20.00167196 3.97352409 16.24609566 C3.02952751 15.88040474 2.08553093 15.51471382 1.11292839 15.13794136 C-1.66209712 14.05073173 -4.40704755 12.90811518 -7.15147591 11.74609566 C-8.08217903 11.36840034 -9.01288216 10.99070503 -9.97178841 10.60156441 C-10.85866341 10.22644722 -11.74553841 9.85133003 -12.65928841 9.46484566 C-13.45222298 9.13420113 -14.24515755 8.80355659 -15.06212044 8.46289253 C-17.39069635 7.02048359 -18.04326716 5.76321571 -19.02647591 3.24609566 C-14.71623802 2.09669889 -10.64983685 2.24072231 -6.23350716 2.40625191 C-3.2858482 2.19235099 -2.87443615 0.34907213 0 0 Z " fill="#3386BC" transform="translate(75.02647590637207,174.75390434265137)"/>
<path d="M0 0 C3.48240164 4.21553883 6.34891128 8.63732917 9.21875 13.28125 C10.99921002 15.99879424 12.93199152 18.49662132 15 21 C19.51478398 20.46884894 22.34666857 18.63379708 26 16 C27.875 16.625 27.875 16.625 30 18 C31.25 21.125 31.25 21.125 32 24 C27.48922414 26.94935345 27.48922414 26.94935345 25 28 C22.875 27.3125 22.875 27.3125 21 26 C18.69628579 24.82221688 18.69628579 24.82221688 16 25 C11.86778761 27.39510399 9.3513259 29.73522675 8.0625 34.375 C8.041875 35.24125 8.02125 36.1075 8 37 C8.99 37 9.98 37 11 37 C12.60546875 38.75 12.60546875 38.75 14.1875 41 C14.71730469 41.7425 15.24710938 42.485 15.79296875 43.25 C16.19128906 43.8275 16.58960938 44.405 17 45 C12.99834864 45.28799328 8.99647784 45.5727019 4.99438477 45.85449219 C3.63559812 45.95061525 2.27687241 46.04760416 0.91821289 46.14550781 C-1.04524376 46.28683631 -3.00894909 46.42469599 -4.97265625 46.5625 C-6.15093994 46.64628906 -7.32922363 46.73007813 -8.54321289 46.81640625 C-12.03581613 47.00190223 -15.50318068 47.03123903 -19 47 C-20.34919008 42.95242975 -20.44489683 39.05320344 -20.6875 34.8125 C-20.74744141 33.98685547 -20.80738281 33.16121094 -20.86914062 32.31054688 C-21.3763033 23.49425332 -19.84629022 17.04723043 -14.14453125 10.12109375 C-10.61385631 6.62900542 -5.19786362 2 0 2 C0 1.34 0 0.68 0 0 Z " fill="#2A7FB8" transform="translate(49,92)"/>
<path d="M0 0 C0.79446533 0.50007568 0.79446533 0.50007568 1.60498047 1.01025391 C5.92909632 3.72858725 5.92909632 3.72858725 10.3203125 6.3359375 C16.19832925 9.72025018 20.47577389 13.74369875 23.375 19.9375 C24.87657679 27.29522628 23.65492601 33.78925094 22 41 C23.98 41 25.96 41 28 41 C28 41.33 28 41.66 28 42 C14.47 42 0.94 42 -13 42 C-9 37 -9 37 -7 36 C-7.29061977 30.8202427 -7.29061977 30.8202427 -10.1875 26.6875 C-13.07463833 24.955217 -15.76376848 23.90313438 -19 23 C-19.66 24.32 -20.32 25.64 -21 27 C-24.48539917 26.35455571 -27.02819057 24.89865603 -30 23 C-29.01 20.36 -28.02 17.72 -27 15 C-23 16 -23 16 -20.0625 18.0625 C-16.91613817 20.05305544 -15.61390616 20.42516543 -12 20 C-11.71914551 19.42024414 -11.43829102 18.84048828 -11.14892578 18.24316406 C-10.06238275 16.12179615 -8.88573766 14.12604448 -7.6171875 12.109375 C-7.17246094 11.40039062 -6.72773438 10.69140625 -6.26953125 9.9609375 C-5.80933594 9.23132813 -5.34914062 8.50171875 -4.875 7.75 C-4.40707031 7.00492187 -3.93914062 6.25984375 -3.45703125 5.4921875 C-2.30631492 3.66043497 -1.15337556 1.8300793 0 0 Z " fill="#2C81B9" transform="translate(173,93)"/>
<path d="M0 0 C1.45880109 0.14107747 2.91703551 0.28802415 4.375 0.4375 C5.59316406 0.55931641 5.59316406 0.55931641 6.8359375 0.68359375 C9 1 9 1 11 2 C10.43608417 7.52428657 7.22800958 11.39236928 4.0625 15.74023438 C2.04278077 18.68297816 0.98943756 20.50418687 1.06640625 24.1171875 C2.00182053 27.00562154 3.11218408 29.52238955 4.5625 32.1875 C7 36.68271955 7 36.68271955 7 40 C4.17125224 41.41437388 1.81188477 41.12271531 -1.35269165 41.12025452 C-2.01185243 41.12110894 -2.67101321 41.12196337 -3.35014856 41.12284368 C-5.56890884 41.12449676 -7.78759428 41.11897994 -10.00634766 41.11352539 C-11.59282937 41.11324346 -13.17931121 41.11340138 -14.76579285 41.1139679 C-19.08166383 41.11425562 -23.3975072 41.10836285 -27.71337175 41.10139394 C-32.22040194 41.09515632 -36.72743271 41.09455628 -41.23446655 41.09336853 C-49.77319579 41.09025642 -58.31191227 41.08204465 -66.85063589 41.07201904 C-76.56996356 41.06085417 -86.28929183 41.05534651 -96.00862432 41.05032361 C-116.00575667 41.03986194 -136.00287753 41.02226482 -156 41 C-154.60804085 43.7839183 -152.84424221 43.97898997 -150 45 C-148.875 51.625 -148.875 51.625 -150 55 C-149.24976563 54.98839844 -148.49953125 54.97679687 -147.7265625 54.96484375 C-141.07662583 54.9062171 -134.59995127 55.18230692 -128 56 C-128 56.66 -128 57.32 -128 58 C-144.83 57.67 -161.66 57.34 -179 57 C-178.01 56.01 -177.02 55.02 -176 54 C-175.855625 53.195625 -175.71125 52.39125 -175.5625 51.5625 C-174.53674088 46.88959733 -170.6700942 44.72371771 -167 42 C-168.21558594 42.08378906 -169.43117188 42.16757813 -170.68359375 42.25390625 C-172.26821121 42.35704703 -173.85284765 42.45989661 -175.4375 42.5625 C-176.64116211 42.64661133 -176.64116211 42.64661133 -177.86914062 42.73242188 C-179.91062111 42.8616295 -181.95546369 42.9351273 -184 43 C-184.33 42.67 -184.66 42.34 -185 42 C-184.66626903 35.99284252 -183.06528443 31.14866049 -180.7421875 25.61328125 C-179.87897664 22.57387039 -179.98155011 20.9766289 -181 18 C-182.36510879 16.26519152 -182.36510879 16.26519152 -184.0625 14.875 C-185.72265625 13.4296875 -185.72265625 13.4296875 -187 12 C-187 11.01 -187 10.02 -187 9 C-183.6778653 10.4623392 -181.30686017 12.30806606 -178.6875 14.8125 C-177.61048828 15.81216797 -177.61048828 15.81216797 -176.51171875 16.83203125 C-175 19 -175 19 -175.078125 21.2421875 C-176.32329798 24.96715412 -177.65085362 28.64745987 -179.0625 32.3125 C-179.34416016 33.05306641 -179.62582031 33.79363281 -179.91601562 34.55664062 C-180.60718575 36.37242655 -181.30311689 38.18639899 -182 40 C-180.53046875 39.80083984 -180.53046875 39.80083984 -179.03125 39.59765625 C-166.93908633 38.11503843 -154.85457155 37.67218254 -142.6875 37.375 C-141.89859375 37.35462677 -141.1096875 37.33425354 -140.296875 37.31326294 C-108.63974882 36.520115 -76.95609925 37.10467882 -45.29656982 37.46356201 C-39.83119055 37.52513997 -34.36578968 37.5847397 -28.90039062 37.64453125 C-18.26690571 37.7611406 -7.63344552 37.87985517 3 38 C2.566875 37.20335937 2.13375 36.40671875 1.6875 35.5859375 C1.130625 34.52632812 0.57375 33.46671875 0 32.375 C-0.556875 31.33085937 -1.11375 30.28671875 -1.6875 29.2109375 C-3.27554527 25.32589818 -3.8441291 22.01532962 -2.18969727 18.06542969 C-1.81901123 17.52305664 -1.4483252 16.98068359 -1.06640625 16.421875 C-0.66486328 15.81859375 -0.26332031 15.2153125 0.15039062 14.59375 C0.78750977 13.68109375 0.78750977 13.68109375 1.4375 12.75 C2.26998613 11.51593174 3.10203735 10.28156994 3.93359375 9.046875 C4.61550781 8.04140625 5.29742187 7.0359375 6 6 C6.33 5.34 6.66 4.68 7 4 C4.69 3.67 2.38 3.34 0 3 C0 2.01 0 1.02 0 0 Z " fill="#14110D" transform="translate(202,135)"/>
<path d="M0 0 C3.59953076 1.68488674 4.77518918 2.66278378 7 6 C6.7578125 8.91796875 6.7578125 8.91796875 6.125 12.1875 C5.92132813 13.27417969 5.71765625 14.36085938 5.5078125 15.48046875 C5.34023437 16.31191406 5.17265625 17.14335938 5 18 C4.01 18.33 3.02 18.66 2 19 C-1.57409749 25.03128951 -3.35396088 31.21632362 -5 38 C-5.33 37.34 -5.66 36.68 -6 36 C-6.66 36 -7.32 36 -8 36 C-7.855625 36.66386719 -7.71125 37.32773438 -7.5625 38.01171875 C-7.376875 38.89472656 -7.19125 39.77773437 -7 40.6875 C-6.814375 41.55761719 -6.62875 42.42773438 -6.4375 43.32421875 C-6.01027953 45.93712964 -5.92383799 48.35813038 -6 51 C-11.01621622 51.77837838 -11.01621622 51.77837838 -14 51 C-16.59594143 48.35507855 -18.18584598 45.20890684 -20 42 C-21.11935505 40.47500711 -22.24420691 38.95403092 -23.375 37.4375 C-26.34053958 33.02780443 -26.54153145 30.234804 -26 25 C-26 24.01 -26 23.02 -26 22 C-23.03 21.01 -20.06 20.02 -17 19 C-17.4640625 16.89625 -17.4640625 16.89625 -17.9375 14.75 C-18.11152344 13.96109375 -18.28554687 13.1721875 -18.46484375 12.359375 C-18.947556 10.23121297 -19.46163178 8.11467158 -20 6 C-18.54261898 5.01941648 -17.08406325 4.04057868 -15.625 3.0625 C-14.81289062 2.51722656 -14.00078125 1.97195312 -13.1640625 1.41015625 C-8.58811829 -1.57164133 -5.25690169 -1.03682836 0 0 Z " fill="#121210" transform="translate(117,84)"/>
<path d="M0 0 C0.66 0.66 1.32 1.32 2 2 C0.89978516 3.30324219 0.89978516 3.30324219 -0.22265625 4.6328125 C-1.17019278 5.79612467 -2.11675689 6.96022936 -3.0625 8.125 C-3.54783203 8.69476563 -4.03316406 9.26453125 -4.53320312 9.8515625 C-6.95071509 12.86916609 -7.99225397 14.28306153 -8.03515625 18.25390625 C-6.8827145 21.31113851 -6.08890637 22.10955078 -3.375 23.8125 C-0.08678673 26.34086031 -0.08678673 26.34086031 0.30859375 29.34375 C0.07383216 31.69881862 -0.20627122 33.76910551 -1 36 C-1.99 36.495 -1.99 36.495 -3 37 C-3.07089844 36.39671875 -3.14179688 35.7934375 -3.21484375 35.171875 C-4.29615924 32.18077346 -5.76938457 31.66622754 -8.5625 30.25 C-9.38878906 29.82203125 -10.21507812 29.3940625 -11.06640625 28.953125 C-12.02353516 28.48132813 -12.02353516 28.48132813 -13 28 C-13.07654536 23.48382401 -13.10228696 19.40914783 -12 15 C-17.22221838 11.1438115 -22.30863235 8.01436483 -29 9 C-32.5939109 10.65872811 -35.79217314 12.68956103 -39 15 C-38.84660156 15.56203125 -38.69320312 16.1240625 -38.53515625 16.703125 C-37.98639581 19.05838878 -37.68502401 21.34548104 -37.4375 23.75 C-37.35371094 24.54921875 -37.26992187 25.3484375 -37.18359375 26.171875 C-37.12300781 26.77515625 -37.06242187 27.3784375 -37 28 C-37.63808594 28.21914062 -38.27617188 28.43828125 -38.93359375 28.6640625 C-41.44304412 29.6271277 -43.71624175 30.57803731 -46 32 C-47.21790719 35.116025 -47.21790719 35.116025 -47 38 C-49 37 -49 37 -50.1875 34.75 C-51.16866586 31.42913093 -51.30436801 30.22255625 -50 27 C-48.23763428 25.20812098 -46.42540758 23.5524027 -44.49609375 21.94140625 C-42.77895563 20.02379062 -42.77895563 20.02379062 -42.50390625 17.17578125 C-43.13394538 13.14253864 -44.97675439 10.69381223 -47.5 7.625 C-47.92925781 7.07972656 -48.35851562 6.53445312 -48.80078125 5.97265625 C-49.85431825 4.63817606 -50.92544214 3.31761261 -52 2 C-36.93266073 -8.04489284 -15.84302692 -7.88566951 0 0 Z " fill="#2B7FB8" transform="translate(137,75)"/>
<path d="M0 0 C2.359375 0.765625 2.359375 0.765625 4.421875 1.953125 C5.06125 2.22125 5.700625 2.489375 6.359375 2.765625 C8.39264585 1.9157081 8.39264585 1.9157081 10.359375 0.765625 C11.679375 0.765625 12.999375 0.765625 14.359375 0.765625 C14.854375 2.250625 14.854375 2.250625 15.359375 3.765625 C17.47685096 6.74456981 19.6401434 9.67610245 21.85351562 12.58398438 C24.38176275 16.0097045 25.359375 17.38452073 25.359375 21.765625 C18.10219392 22.69191077 10.91931341 23.00506624 3.609375 23.203125 C-10.14148243 23.62047321 -23.86791122 24.32721507 -37.60253906 25.10522461 C-38.37413864 25.14868011 -39.14573822 25.19213562 -39.9407196 25.23690796 C-41.38952814 25.31882548 -42.83827382 25.40186524 -44.28694153 25.48623657 C-47.41470962 25.66412995 -50.50571327 25.765625 -53.640625 25.765625 C-53.640625 25.105625 -53.640625 24.445625 -53.640625 23.765625 C-28.395625 21.785625 -28.395625 21.785625 -2.640625 19.765625 C-4.290625 18.115625 -5.940625 16.465625 -7.640625 14.765625 C-7.640625 14.105625 -7.640625 13.445625 -7.640625 12.765625 C-8.630625 12.765625 -9.620625 12.765625 -10.640625 12.765625 C-11.140625 10.203125 -11.140625 10.203125 -10.640625 6.765625 C-7.77346887 3.20784002 -4.81607642 -0.4274624 0 0 Z " fill="#9E641C" transform="translate(67.640625,116.234375)"/>
<path d="M0 0 C5.42700017 0.38764287 8.28762789 2.02862518 12 6 C12.875 9.8125 12.875 9.8125 13 13 C12.0925 13.433125 11.185 13.86625 10.25 14.3125 C7.10038499 15.75920167 7.10038499 15.75920167 5.3125 17.59375 C1.91608591 19.65913694 -1.40524114 19.31996077 -5.25 19.1875 C-5.99507812 19.17396484 -6.74015625 19.16042969 -7.5078125 19.14648438 C-9.33885416 19.11127204 -11.16952169 19.05746851 -13 19 C-11.02 16.36 -9.04 13.72 -7 11 C-7.33 11 -7.66 11 -8 11 C-9.21649657 12.30693157 -10.39878439 13.6458582 -11.5625 15 C-12.20316406 15.7425 -12.84382812 16.485 -13.50390625 17.25 C-13.99761719 17.8275 -14.49132812 18.405 -15 19 C-15.763125 18.814375 -16.52625 18.62875 -17.3125 18.4375 C-20.08967375 17.77180827 -20.08967375 17.77180827 -23 19 C-21.38343185 15.60520688 -19.49068911 12.43847663 -17.5 9.25 C-16.8915625 8.26515625 -16.283125 7.2803125 -15.65625 6.265625 C-15.1096875 5.51796875 -14.563125 4.7703125 -14 4 C-13.34 4 -12.68 4 -12 4 C-11.67 3.01 -11.34 2.02 -11 1 C-10.1646875 1.495 -10.1646875 1.495 -9.3125 2 C-6.62849816 3.16064945 -4.89460562 3.38086916 -2 3 C-1.34 2.01 -0.68 1.02 0 0 Z " fill="#21190E" transform="translate(154,116)"/>
<path d="M0 0 C18.15 0 36.3 0 55 0 C55.495 2.475 55.495 2.475 56 5 C56.94875 5.268125 57.8975 5.53625 58.875 5.8125 C62 7 62 7 64 10 C64.125 12.6875 64.125 12.6875 64 15 C64.99 15.33 65.98 15.66 67 16 C67 16.33 67 16.66 67 17 C50.17 17 33.34 17 16 17 C16 16.67 16 16.34 16 16 C23.26 15.67 30.52 15.34 38 15 C38 11.7 38 8.4 38 5 C39.98 5 41.96 5 44 5 C44.33 3.68 44.66 2.36 45 1 C30.15 1 15.3 1 0 1 C0 0.67 0 0.34 0 0 Z " fill="#676767" transform="translate(132,175)"/>
<path d="M0 0 C6.93 0 13.86 0 21 0 C21 0.33 21 0.66 21 1 C18.36 1 15.72 1 13 1 C14.39195915 3.7839183 16.15575779 3.97898997 19 5 C20.125 11.625 20.125 11.625 19 15 C19.75023438 14.98839844 20.50046875 14.97679687 21.2734375 14.96484375 C27.92337417 14.9062171 34.40004873 15.18230692 41 16 C41 16.66 41 17.32 41 18 C24.17 17.67 7.34 17.34 -10 17 C-9.01 16.01 -8.02 15.02 -7 14 C-6.855625 13.195625 -6.71125 12.39125 -6.5625 11.5625 C-5.54741432 6.93822077 -1.69965132 4.64260809 2 2 C1.34 1.34 0.68 0.68 0 0 Z " fill="#DCDCDC" transform="translate(33,175)"/>
<path d="M0 0 C9.46289753 1.09187279 9.46289753 1.09187279 12.8125 5.25 C14.33104314 8.76662623 13.94801801 10.30630721 13 14 C11.15234375 17.2109375 11.15234375 17.2109375 8.9375 20.375 C8.20402344 21.43460938 7.47054687 22.49421875 6.71484375 23.5859375 C6.14894531 24.38257813 5.58304688 25.17921875 5 26 C3.68774191 22.06322574 4.6606046 20.2205738 5.9375 16.3125 C6.31777344 15.13300781 6.69804688 13.95351562 7.08984375 12.73828125 C7.39019531 11.83464844 7.69054687 10.93101563 8 10 C4.91302228 16.90823655 3.08165726 23.51379318 2 31 C-0.64 31 -3.28 31 -6 31 C-5.72276331 20.20163081 -4.93354228 9.86708455 0 0 Z " fill="#E8A53D" transform="translate(119,104)"/>
<path d="M0 0 C3.17463617 5.75238827 4.82643052 10.70621533 5.75 17.1875 C5.87503906 17.96802734 6.00007813 18.74855469 6.12890625 19.55273438 C6.72280715 23.40003743 7.15650519 27.09519545 7 31 C0.84765625 31.09765625 0.84765625 31.09765625 -1 31 C-2.62946942 29.37053058 -2.47643807 27.30186596 -2.8125 25.0625 C-3.93799259 18.61191558 -5.63413878 12.13746104 -9.62890625 6.83984375 C-11 5 -11 5 -11 3 C-7.14243493 0.84694043 -4.44870215 -0.39253254 0 0 Z " fill="#E8A53D" transform="translate(104,104)"/>
<path d="M0 0 C3.9375 0.6875 3.9375 0.6875 6.4375 2.5625 C8.57081382 7.00690379 8.69954098 10.8453646 7.9375 15.6875 C6.4375 18.8125 6.4375 18.8125 3.9375 20.6875 C1.13422122 21.32513103 -1.25859148 21.32082636 -4.0625 20.6875 C-7.03108157 18.48009319 -7.89115791 17.20152627 -9.0625 13.6875 C-9.56721432 9.22919018 -9.34331782 7.17015563 -7.0625 3.25 C-3.53619723 0.23794972 -3.53619723 0.23794972 0 0 Z " fill="#F3F1EE" transform="translate(57.0625,144.3125)"/>
<path d="M0 0 C3.74972631 1.03952809 5.08806279 3.30772999 6.97265625 6.546875 C7.67831944 11.57472524 6.98853031 14.48704453 3.97265625 18.546875 C1.97265625 20.546875 1.97265625 20.546875 -1.90234375 20.921875 C-4.69987795 20.81506006 -5.99574884 20.56346233 -8.52734375 19.234375 C-10.98185619 14.83670688 -10.72408335 10.45308299 -10.02734375 5.546875 C-7.79772351 0.80893198 -5.30017641 -0.35664738 0 0 Z " fill="#F3F1EF" transform="translate(78.02734375,144.453125)"/>
<path d="M0 0 C10 0 10 0 13.125 1.3125 C16.13825085 5.63149289 15.90181402 9.919781 15 15 C13.125 18.1875 13.125 18.1875 10 20 C6.7 20 3.4 20 0 20 C0 13.4 0 6.8 0 0 Z " fill="#F3F6F8" transform="translate(88,145)"/>
<path d="M0 0 C0 3.96946595 -1.45802616 5.34373237 -3.8125 8.5 C-4.52019531 9.4590625 -5.22789062 10.418125 -5.95703125 11.40625 C-8 14 -8 14 -9.75 15.64453125 C-11.34272604 17.08443336 -11.34272604 17.08443336 -11.1875 20.1875 C-11.125625 21.115625 -11.06375 22.04375 -11 23 C-10.443125 23.268125 -9.88625 23.53625 -9.3125 23.8125 C-6.80287477 25.10122647 -4.40665764 26.52926478 -2 28 C-2.21670962 39.05219066 -9.67255561 50.96520331 -17 59 C-17.99 59 -18.98 59 -20 59 C-21.4301492 55.19543642 -20.53792878 52.70329177 -19.25 48.9375 C-18.90453125 47.89464844 -18.5590625 46.85179687 -18.203125 45.77734375 C-17.07319665 43.16897019 -16.15803616 41.79216222 -14 40 C-14.20496094 40.66386719 -14.40992187 41.32773438 -14.62109375 42.01171875 C-15.02521484 43.33623047 -15.02521484 43.33623047 -15.4375 44.6875 C-15.70433594 45.55761719 -15.97117187 46.42773438 -16.24609375 47.32421875 C-16.96344529 49.87025921 -17.517541 52.4003423 -18 55 C-16.62482456 53.14035356 -15.27552802 51.26155066 -13.9375 49.375 C-13.18339844 48.33085938 -12.42929688 47.28671875 -11.65234375 46.2109375 C-9.72166707 42.45912609 -9.84576801 40.98126397 -11 37 C-11.495 35.515 -11.495 35.515 -12 34 C-14.56042066 32.96961044 -14.56042066 32.96961044 -17.5625 32.3125 C-18.57441406 32.06113281 -19.58632812 31.80976562 -20.62890625 31.55078125 C-21.41136719 31.36902344 -22.19382812 31.18726562 -23 31 C-23.66 32.32 -24.32 33.64 -25 35 C-25 32 -25 32 -23 29 C-22.01 29 -21.02 29 -20 29 C-19.80543295 27.04235617 -19.61955753 25.08384679 -19.4375 23.125 C-19.33308594 22.03445312 -19.22867188 20.94390625 -19.12109375 19.8203125 C-18.77360596 17.04847977 -18.77360596 17.04847977 -20 15 C-18.68 15.66 -17.36 16.32 -16 17 C-16.165 17.66 -16.33 18.32 -16.5 19 C-17.12183299 22.73099794 -17.06408926 26.21873378 -17 30 C-16.36191406 30.32613281 -15.72382812 30.65226562 -15.06640625 30.98828125 C-14.24011719 31.42527344 -13.41382813 31.86226562 -12.5625 32.3125 C-11.73878906 32.74175781 -10.91507813 33.17101562 -10.06640625 33.61328125 C-8 35 -8 35 -7 38 C-6.19009575 34.93733688 -5.6827429 32.16737003 -6 29 C-7.612845 27.09312428 -9.22521395 25.90648925 -11.3359375 24.58203125 C-13 23 -13 23 -14.0546875 20.2734375 C-13.97544351 15.5301184 -11.75815821 13.30957723 -8.75 9.8125 C-8.24597656 9.19697266 -7.74195313 8.58144531 -7.22265625 7.94726562 C-4.92694726 5.16650527 -2.57555276 2.52587733 0 0 Z " fill="#080C10" transform="translate(142,73)"/>
<path d="M0 0 C2.2986908 -0.36749268 2.2986908 -0.36749268 5.21459961 -0.35644531 C6.30852524 -0.35944641 7.40245087 -0.36244751 8.52952576 -0.36553955 C9.72505569 -0.35319275 10.92058563 -0.34084595 12.15234375 -0.328125 C14.0163961 -0.32531525 14.0163961 -0.32531525 15.91810608 -0.32244873 C18.57078769 -0.31570256 21.22271759 -0.30338467 23.87524414 -0.28125 C27.83415414 -0.24829662 31.7929053 -0.24034379 35.75195312 -0.234375 C48.61034044 -0.19605707 61.46395167 -0.00717121 74.31640625 0.390625 C76.04285622 0.43542999 76.04285622 0.43542999 77.80418396 0.48114014 C78.85566116 0.51862366 79.90713837 0.55610718 80.99047852 0.59472656 C82.37493919 0.63947113 82.37493919 0.63947113 83.78736877 0.68511963 C86 1 86 1 88 3 C58.3 3 28.6 3 -2 3 C-1.34 2.01 -0.68 1.02 0 0 Z " fill="#F5F5F4" transform="translate(73,175)"/>
<path d="M0 0 C2.68465759 3.36832816 4.77922617 7.00127797 6.875 10.75 C7.58367783 11.99924163 8.29330975 13.2479425 9.00390625 14.49609375 C9.34566895 15.09663574 9.68743164 15.69717773 10.03955078 16.31591797 C13.30689971 22.98892368 13.30689971 22.98892368 19 27 C18.484375 26.05125 17.96875 25.1025 17.4375 24.125 C16.963125 23.09375 16.48875 22.0625 16 21 C16.33 20.34 16.66 19.68 17 19 C19.35448165 21.55068845 19.98327924 22.71017358 20.1875 26.25 C20.0946875 27.61125 20.0946875 27.61125 20 29 C17.625 29.125 17.625 29.125 15 29 C14.34 28.34 13.68 27.68 13 27 C13.66 27.99 14.32 28.98 15 30 C14.625 32.1875 14.625 32.1875 14 34 C10.75480334 33.69593558 9.38099448 33.43719323 7.19921875 30.93359375 C6.70035156 30.10988281 6.20148437 29.28617188 5.6875 28.4375 C5.17574219 27.61121094 4.66398437 26.78492187 4.13671875 25.93359375 C3.76160156 25.29550781 3.38648438 24.65742187 3 24 C3.99 23.67 4.98 23.34 6 23 C5.10785754 17.81282882 1.98122315 13.4929992 -0.6015625 8.99609375 C-2 6 -2 6 -1 3 C-0.67 3 -0.34 3 0 3 C0 2.01 0 1.02 0 0 Z " fill="#2B3036" transform="translate(56,66)"/>
<path d="M0 0 C0 10.23 0 20.46 0 31 C-1.00478591 28.99042818 -2.00930087 26.97928797 -2.9296875 24.9296875 C-3.39761719 23.91261719 -3.39761719 23.91261719 -3.875 22.875 C-4.18179688 22.19179687 -4.48859375 21.50859375 -4.8046875 20.8046875 C-5.87405597 18.82394758 -5.87405597 18.82394758 -8.0859375 18.140625 C-8.71757813 17.76421875 -9.34921875 17.3878125 -10 17 C-10.609375 14.1796875 -10.609375 14.1796875 -10.75 10.875 C-10.80671875 9.77929688 -10.8634375 8.68359375 -10.921875 7.5546875 C-10.94765625 6.71164063 -10.9734375 5.86859375 -11 5 C-3.90322581 0 -3.90322581 0 0 0 Z " fill="#CE8221" transform="translate(111,85)"/>
<path d="M0 0 C0.66 0 1.32 0 2 0 C2 6.6 2 13.2 2 20 C1.67 19.34 1.34 18.68 1 18 C-0.2375 18.061875 -1.475 18.12375 -2.75 18.1875 C-5.48147419 18.32407371 -6.79813466 18.10834381 -9.234375 16.80078125 C-11 15 -11 15 -11.53125 12.625 C-11.5209375 11.75875 -11.510625 10.8925 -11.5 10 C-11.5103125 9.13375 -11.520625 8.2675 -11.53125 7.375 C-11 5 -11 5 -9.171875 3.19921875 C-6.33929088 1.635184 -4.18374826 1.78292625 -1 2 C-0.67 1.34 -0.34 0.68 0 0 Z " fill="#F1AB3F" transform="translate(175,145)"/>
<path d="M0 0 C7 1 7 1 11 4 C10.34 7.96 9.68 11.92 9 16 C8.01 16.33 7.02 16.66 6 17 C4.83582056 18.75959996 4.83582056 18.75959996 3.9375 20.875 C2.74888621 23.46226374 1.59526008 25.60710987 0 28 C0 18.76 0 9.52 0 0 Z " fill="#EDA93E" transform="translate(113,86)"/>
<path d="M0 0 C9 0 9 0 12 2 C12.43132515 6.05445642 12.30019361 7.54970958 10 11 C11.33118065 14.57831151 11.33118065 14.57831151 13 18 C13 18.66 13 19.32 13 20 C11.68 20 10.36 20 9 20 C8.34 17.69 7.68 15.38 7 13 C5.68 12.67 4.36 12.34 3 12 C3 14.64 3 17.28 3 20 C2.01 20 1.02 20 0 20 C0 13.4 0 6.8 0 0 Z " fill="#F3EEE7" transform="translate(127,145)"/>
<path d="M0 0 C2.37855158 0.9063067 3.36274178 1.88909739 4.9987793 3.82373047 C5.78478516 4.74605469 5.78478516 4.74605469 6.58666992 5.68701172 C7.12098633 6.33283203 7.65530273 6.97865234 8.20581055 7.64404297 C8.75172852 8.28212891 9.29764648 8.92021484 9.86010742 9.57763672 C13.87756807 14.34681553 13.87756807 14.34681553 15.01831055 17.76904297 C11.24410188 18.25257148 7.77509175 18.45492833 4.01831055 17.76904297 C1.97054446 15.95838664 0.78222544 14.14469311 -0.6340332 11.81591797 C-2.60384303 8.82409087 -4.90534958 7.52695147 -7.98168945 5.76904297 C-6.98168945 2.76904297 -6.98168945 2.76904297 -4.66918945 1.01904297 C-1.98168945 -0.23095703 -1.98168945 -0.23095703 0 0 Z " fill="#EDA93E" transform="translate(67.981689453125,118.23095703125)"/>
<path d="M0 0 C2.51252394 0.89555309 3.68469872 1.80705306 5.3671875 3.84375 C4.00414853 6.99918521 2.5489262 8.77563133 -0.1328125 10.90625 C-2.56946162 12.85247186 -3.85543371 14.17768182 -5.6328125 16.84375 C-8.234375 17.13671875 -8.234375 17.13671875 -11.2578125 17.03125 C-12.76214844 16.99064453 -12.76214844 16.99064453 -14.296875 16.94921875 C-15.06773437 16.91441406 -15.83859375 16.87960938 -16.6328125 16.84375 C-13.4216046 12.37968447 -10.07240711 8.02097744 -6.5703125 3.78125 C-5.93996094 3.00652344 -5.30960938 2.23179688 -4.66015625 1.43359375 C-2.6328125 -0.15625 -2.6328125 -0.15625 0 0 Z " fill="#EAA73E" transform="translate(157.6328125,118.15625)"/>
<path d="M0 0 C0.495 0.99 0.495 0.99 1 2 C0.27490234 3.61645508 0.27490234 3.61645508 -0.9140625 5.51953125 C-1.34589844 6.21240234 -1.77773437 6.90527344 -2.22265625 7.61914062 C-2.68542969 8.34294922 -3.14820313 9.06675781 -3.625 9.8125 C-4.06457031 10.52470703 -4.50414062 11.23691406 -4.95703125 11.97070312 C-7.58734633 16.13986824 -10.1258251 19.90943653 -14 23 C-17.28017825 22.95550146 -19.94077896 21.04867089 -22.75 19.4375 C-23.54921875 18.98246094 -24.3484375 18.52742188 -25.171875 18.05859375 C-25.77515625 17.70925781 -26.3784375 17.35992187 -27 17 C-27.66 19.64 -28.32 22.28 -29 25 C-27.35 25.99 -25.7 26.98 -24 28 C-24.66 28.33 -25.32 28.66 -26 29 C-28.125 28.0625 -28.125 28.0625 -30 27 C-30.33 27.66 -30.66 28.32 -31 29 C-31.66 29 -32.32 29 -33 29 C-33.2475 29.721875 -33.495 30.44375 -33.75 31.1875 C-35.10983674 34.24713266 -36.82917754 36.4673738 -39 39 C-39 35.02905766 -38.80946215 34.18412192 -36.8828125 30.99609375 C-36.44066406 30.25552734 -35.99851563 29.51496094 -35.54296875 28.75195312 C-35.07503906 27.98818359 -34.60710937 27.22441406 -34.125 26.4375 C-33.66480469 25.66986328 -33.20460937 24.90222656 -32.73046875 24.11132812 C-30.87665112 21.02969215 -28.99526654 17.9928998 -27 15 C-23.00642372 15.5705109 -20.42215525 16.92869551 -17 19 C-16.01 19 -15.02 19 -14 19 C-12.49050538 17.32882401 -12.49050538 17.32882401 -11.15234375 15.09765625 C-10.62962891 14.29005859 -10.10691406 13.48246094 -9.56835938 12.65039062 C-9.03017578 11.79638672 -8.49199219 10.94238281 -7.9375 10.0625 C-6.86735442 8.38411472 -5.79332296 6.70819878 -4.71484375 5.03515625 C-4.00509399 3.91185913 -4.00509399 3.91185913 -3.28100586 2.76586914 C-2 1 -2 1 0 0 Z " fill="#06090C" transform="translate(173,91)"/>
<path d="M0 0 C3.3907519 1.45317939 5.41300312 3.41300312 8 6 C8.99 6.33 9.98 6.66 11 7 C10.505 5.02 10.505 5.02 10 3 C10.66 3.33 11.32 3.66 12 4 C12 4.66 12 5.32 12 6 C13.65 6 15.3 6 17 6 C17 6.33 17 6.66 17 7 C19.31 7.33 21.62 7.66 24 8 C24 8.33 24 8.66 24 9 C22.97289917 9.029729 22.97289917 9.029729 21.92504883 9.06005859 C4.61340805 9.57554876 -12.6685417 10.35977557 -29.9597168 11.33935547 C-30.73163361 11.38284622 -31.50355042 11.42633698 -32.29885864 11.47114563 C-33.7481239 11.55313268 -35.19732729 11.63622379 -36.64645386 11.72062683 C-39.77417597 11.89850572 -42.86513488 12 -46 12 C-46 11.34 -46 10.68 -46 10 C-20.755 8.02 -20.755 8.02 5 6 C2.525 3.03 2.525 3.03 0 0 Z " fill="#17130E" transform="translate(60,130)"/>
<path d="M0 0 C1.45880109 0.14107747 2.91703551 0.28802415 4.375 0.4375 C5.59316406 0.55931641 5.59316406 0.55931641 6.8359375 0.68359375 C9 1 9 1 11 2 C10.43608417 7.52428657 7.22800958 11.39236928 4.0625 15.74023438 C2.04365671 18.68170191 0.99009433 20.50595475 1.0625 24.1171875 C2.30513102 27.93827789 4.09280721 31.23043506 6.0390625 34.73046875 C7 37 7 37 6 40 C6 39.34 6 38.68 6 38 C4.515 38.495 4.515 38.495 3 39 C1.98571486 36.96539231 0.98913211 34.92195394 0 32.875 C-0.8353125 31.16957031 -0.8353125 31.16957031 -1.6875 29.4296875 C-3.07388818 25.80692315 -3.58743014 23.82076411 -3 20 C-1.75699498 17.41058698 -0.2042391 15.10174767 1.4375 12.75 C2.26998613 11.51593174 3.10203735 10.28156994 3.93359375 9.046875 C4.61550781 8.04140625 5.29742187 7.0359375 6 6 C6.33 5.34 6.66 4.68 7 4 C4.69 3.67 2.38 3.34 0 3 C0 2.01 0 1.02 0 0 Z " fill="#494745" transform="translate(202,135)"/>
<path d="M0 0 C3.7673383 1.48253653 5.30910776 3.46366163 7.53125 6.796875 C8.17707031 7.7559375 8.82289062 8.715 9.48828125 9.703125 C10.15214844 10.70859375 10.81601562 11.7140625 11.5 12.75 C12.16386719 13.74 12.82773437 14.73 13.51171875 15.75 C14.7891723 17.657256 16.06154989 19.56792442 17.328125 21.48242188 C18.68781672 23.52990159 20.07279353 25.55546272 21.46875 27.578125 C23 30 23 30 23 32 C24.6396875 31.319375 24.6396875 31.319375 26.3125 30.625 C26.92738281 30.36976562 27.54226562 30.11453125 28.17578125 29.8515625 C30.26533932 28.93193308 30.26533932 28.93193308 33 27 C34.32 27 35.64 27 37 27 C37.495 28.98 37.495 28.98 38 31 C37.4225 30.7834375 36.845 30.566875 36.25 30.34375 C33.26462102 29.88765043 32.39378479 30.7420643 30 32.5 C26.50827566 35.06423506 26.50827566 35.06423506 24.02954102 34.75097656 C20.55531114 33.4654321 18.93765292 30.21274525 16.9375 27.25 C16.50373047 26.62867187 16.06996094 26.00734375 15.62304688 25.3671875 C9 15.81064498 9 15.81064498 9 13 C8.34 13 7.68 13 7 13 C5.2734375 10.6640625 5.2734375 10.6640625 3.375 7.625 C2.74335937 6.62726563 2.11171875 5.62953125 1.4609375 4.6015625 C0 2 0 2 0 0 Z " fill="#151718" transform="translate(41,79)"/>
<path d="M0 0 C6.93 0 13.86 0 21 0 C21 0.33 21 0.66 21 1 C18.36 1 15.72 1 13 1 C14.25541557 3.51083114 15.50063488 3.87125446 18 5 C18 5.66 18 6.32 18 7 C14.39006828 8.13480527 11.0157673 8.10015767 7.25 8.0625 C6.07953125 8.05347656 4.9090625 8.04445312 3.703125 8.03515625 C2.81109375 8.02355469 1.9190625 8.01195312 1 8 C1 8.99 1 9.98 1 11 C-1.97 10.505 -1.97 10.505 -5 10 C-4.875 8.25 -4.875 8.25 -4 6 C-0.9375 3.75 -0.9375 3.75 2 2 C1.34 1.34 0.68 0.68 0 0 Z " fill="#737372" transform="translate(33,175)"/>
<path d="M0 0 C0.99 0 1.98 0 3 0 C3.33 2.64 3.66 5.28 4 8 C4.39832031 7.4225 4.79664063 6.845 5.20703125 6.25 C5.73683594 5.5075 6.26664063 4.765 6.8125 4 C7.59560547 2.88625 7.59560547 2.88625 8.39453125 1.75 C8.92433594 1.1725 9.45414063 0.595 10 0 C10.99 0 11.98 0 13 0 C11.48674917 3.14290557 9.811935 5.98010834 8 9 C9.98 12.3 11.96 15.6 14 19 C12.68 19.33 11.36 19.66 10 20 C6 13.25 6 13.25 6 11 C5.01 11.495 5.01 11.495 4 12 C3.53476937 13.89533342 3.53476937 13.89533342 3.375 16.0625 C3.25125 17.361875 3.1275 18.66125 3 20 C2.01 20 1.02 20 0 20 C0 13.4 0 6.8 0 0 Z " fill="#F3EFEA" transform="translate(177,145)"/>
<path d="M0 0 C4.75 0.75 4.75 0.75 7 3 C7.30078125 5.27734375 7.30078125 5.27734375 7.3125 7.9375 C7.32925781 8.81277344 7.34601563 9.68804687 7.36328125 10.58984375 C7 13 7 13 5.640625 14.82421875 C4 16 4 16 1.4375 15.875 C-1 15 -1 15 -3 12 C-3.56074766 4.93457944 -3.56074766 4.93457944 -1.5 1.5 C-1.005 1.005 -0.51 0.51 0 0 Z " fill="#F0AC41" transform="translate(74,147)"/>
<path d="M0 0 C2.4375 0.875 2.4375 0.875 4.4375 3.875 C5.00620532 11.69469817 5.00620532 11.69469817 2.4375 14.875 C0 15.8125 0 15.8125 -2.5625 15.875 C-4.8450212 14.22439397 -5.4909332 13.30159429 -5.9609375 10.5 C-5.95320313 9.63375 -5.94546875 8.7675 -5.9375 7.875 C-5.94523437 7.00875 -5.95296875 6.1425 -5.9609375 5.25 C-5.32440106 1.45574356 -3.89513956 -0.19000681 0 0 Z " fill="#F0AC42" transform="translate(57.5625,147.125)"/>
<path d="M0 0 C0.99 0 1.98 0 3 0 C3.33 5.28 3.66 10.56 4 16 C5.65 16.33 7.3 16.66 9 17 C10.15570704 13.53287889 10.32835293 10.4585044 10.5625 6.8125 C10.64628906 5.54019531 10.73007813 4.26789063 10.81640625 2.95703125 C10.87699219 1.98121094 10.93757812 1.00539062 11 0 C11.99 0 12.98 0 14 0 C14.08112454 2.58396679 14.14054748 5.16537568 14.1875 7.75 C14.22520508 8.84441406 14.22520508 8.84441406 14.26367188 9.9609375 C14.30765034 13.18602524 14.20971908 15.58640541 12.73828125 18.48828125 C10.66050654 20.29524487 9.72410356 20.51488931 7 20.4375 C5.9790625 20.43556641 5.9790625 20.43556641 4.9375 20.43359375 C2.42801456 19.87199519 1.6086767 18.98449371 0 17 C-0.34057617 15.09887695 -0.34057617 15.09887695 -0.29296875 12.98828125 C-0.28330078 12.23095703 -0.27363281 11.47363281 -0.26367188 10.69335938 C-0.23853516 9.90767578 -0.21339844 9.12199219 -0.1875 8.3125 C-0.17396484 7.51521484 -0.16042969 6.71792969 -0.14648438 5.89648438 C-0.11117089 3.93070033 -0.05736447 1.96526418 0 0 Z " fill="#F3F1EF" transform="translate(143,145)"/>
<path d="M0 0 C3.01357974 2.87659884 4.95458757 4.84198305 5.125 9.1875 C5.08375 10.115625 5.0425 11.04375 5 12 C4.04287109 12.32871094 4.04287109 12.32871094 3.06640625 12.6640625 C0.55695588 13.6271277 -1.71624175 14.57803731 -4 16 C-5.21790719 19.116025 -5.21790719 19.116025 -5 22 C-7 21 -7 21 -8.1875 18.75 C-9.16866586 15.42913093 -9.30436801 14.22255625 -8 11 C-6.28016746 9.1371985 -4.49007427 7.42869295 -2.59375 5.74609375 C-0.83767907 3.8221631 -0.40043416 2.54164457 0 0 Z " fill="#2477AF" transform="translate(95,91)"/>
<path d="M0 0 C2.31 0.33 4.62 0.66 7 1 C9.46751239 4.70126859 9.30721156 6.62223532 9 11 C8.4375 13.375 8.4375 13.375 7 15 C4.69 15.33 2.38 15.66 0 16 C0 10.72 0 5.44 0 0 Z " fill="#F0AB3F" transform="translate(91,147)"/>
<path d="M0 0 C3.10398978 -0.08710289 6.20766548 -0.14042309 9.3125 -0.1875 C10.19357422 -0.21263672 11.07464844 -0.23777344 11.98242188 -0.26367188 C13.25375977 -0.27817383 13.25375977 -0.27817383 14.55078125 -0.29296875 C15.72120972 -0.31653442 15.72120972 -0.31653442 16.9152832 -0.34057617 C19.55366936 0.0904519 20.43445625 0.86141406 22 3 C22 3.99 22 4.98 22 6 C16.39 6 10.78 6 5 6 C5 6.66 5 7.32 5 8 C4.34 8 3.68 8 3 8 C3 7.34 3 6.68 3 6 C2.01 5.67 1.02 5.34 0 5 C0 3.35 0 1.7 0 0 Z " fill="#ADADAD" transform="translate(172,182)"/>
<path d="M0 0 C2.93303483 2.80325453 5.39411992 5.69774075 7.75 9 C8.67039062 10.2684375 8.67039062 10.2684375 9.609375 11.5625 C11 14 11 14 11 18 C4.07 18 -2.86 18 -10 18 C-10 17.67 -10 17.34 -10 17 C-6.7 16.34 -3.4 15.68 0 15 C-0.66 13.35 -1.32 11.7 -2 10 C-0.53515625 11.26953125 0.9296875 12.5390625 2.39453125 13.80859375 C4.10712971 15.20871231 4.10712971 15.20871231 7 16 C5.78574116 14.19819657 4.55295464 12.40887007 3.3125 10.625 C2.62800781 9.62726563 1.94351563 8.62953125 1.23828125 7.6015625 C-1.09608495 4.88832012 -2.61002447 3.98552704 -6 3 C-3 1 -3 1 0 0 Z " fill="#0E0A06" transform="translate(82,120)"/>
<path d="M0 0 C29.7 0 59.4 0 90 0 C90 0.33 90 0.66 90 1 C74.16 1 58.32 1 42 1 C42 1.66 42 2.32 42 3 C41.34 3.33 40.68 3.66 40 4 C38.86649466 6.01669827 38.86649466 6.01669827 38 8 C37.71125 7.38125 37.4225 6.7625 37.125 6.125 C36.06279958 3.86674235 36.06279958 3.86674235 34 2 C31.42420615 1.75470419 28.94770993 1.62658207 26.3671875 1.5859375 C25.61535187 1.56657135 24.86351624 1.5472052 24.08889771 1.5272522 C21.68438101 1.46740853 19.27981656 1.42105274 16.875 1.375 C15.24607272 1.33682454 13.61716572 1.29777307 11.98828125 1.2578125 C7.99235194 1.16170334 3.99632813 1.07769059 0 1 C0 0.67 0 0.34 0 0 Z " fill="#0E77B6" transform="translate(71,178)"/>
<path d="M0 0 C1 3 1 3 0 6 C1.32 6.33 2.64 6.66 4 7 C2.98418562 8.99255898 1.93630827 10.96879614 0.875 12.9375 C0.29492188 14.03964844 -0.28515625 15.14179687 -0.8828125 16.27734375 C-3 19 -3 19 -6.2421875 19.87890625 C-7.15226563 19.91886719 -8.06234375 19.95882812 -9 20 C-10 17 -10 17 -9.30322266 15.20654297 C-8.9272998 14.55830566 -8.55137695 13.91006836 -8.1640625 13.2421875 C-7.55691406 12.18064453 -7.55691406 12.18064453 -6.9375 11.09765625 C-6.504375 10.36417969 -6.07125 9.63070312 -5.625 8.875 C-5.19960937 8.13378906 -4.77421875 7.39257812 -4.3359375 6.62890625 C-1.19923566 1.19923566 -1.19923566 1.19923566 0 0 Z " fill="#0A0C0E" transform="translate(165,80)"/>
<path d="M0 0 C0.59167969 0.06960937 1.18335938 0.13921875 1.79296875 0.2109375 C1.46296875 1.2009375 1.13296875 2.1909375 0.79296875 3.2109375 C-0.90859375 3.4275 -0.90859375 3.4275 -2.64453125 3.6484375 C-6.01480326 3.82265228 -6.01480326 3.82265228 -7.20703125 5.2109375 C-7.44522353 7.50709304 -7.44522353 7.50709304 -7.45703125 10.1484375 C-7.4828125 11.04433594 -7.50859375 11.94023437 -7.53515625 12.86328125 C-7.426875 13.63800781 -7.31859375 14.41273438 -7.20703125 15.2109375 C-3.77182645 17.50107403 -2.22170025 17.38936723 1.79296875 17.2109375 C1.79296875 18.2009375 1.79296875 19.1909375 1.79296875 20.2109375 C-6.36982195 20.83884448 -6.36982195 20.83884448 -9.70703125 18.3359375 C-12.47150101 14.41960534 -12.94936502 10.92694025 -12.20703125 6.2109375 C-9.70237931 0.39525788 -5.83660047 -0.39989759 0 0 Z " fill="#F3F0EC" transform="translate(172.20703125,144.7890625)"/>
<path d="M0 0 C3 1 3 1 4.31640625 3.00390625 C6.8866055 8.28127461 9.08073255 13.17797285 10 19 C9.34 19.99 8.68 20.98 8 22 C6.47933206 19.82460004 4.98444606 17.63742231 3.5 15.4375 C3.07074219 14.82841797 2.64148438 14.21933594 2.19921875 13.59179688 C-0.67495283 9.2805395 -1.59179878 6.33291397 -1 1 C-0.67 0.67 -0.34 0.34 0 0 Z " fill="#8E5B19" transform="translate(92,109)"/>
<path d="M0 0 C0.66 0 1.32 0 2 0 C2.33 0.99 2.66 1.98 3 3 C1.5625 5.1875 1.5625 5.1875 0 7 C3.32307692 3.06153846 3.32307692 3.06153846 6.75 2.75 C7.4925 2.8325 8.235 2.915 9 3 C8.61328125 3.44730469 8.2265625 3.89460938 7.828125 4.35546875 C4.81609925 7.8521026 1.85678969 11.37407463 -1 15 C-1.763125 14.814375 -2.52625 14.62875 -3.3125 14.4375 C-6.08967375 13.77180827 -6.08967375 13.77180827 -9 15 C-7.38343185 11.60520688 -5.49068911 8.43847663 -3.5 5.25 C-2.8915625 4.26515625 -2.283125 3.2803125 -1.65625 2.265625 C-1.1096875 1.51796875 -0.563125 0.7703125 0 0 Z " fill="#B47421" transform="translate(140,120)"/>
<path d="M0 0 C2.64853927 1.9521561 3.00317626 4.23352983 3.8125 7.3359375 C-0.67123102 10.26760778 -0.67123102 10.26760778 -3.1875 11.3359375 C-6.24985211 10.57034947 -8.18027153 8.74461166 -10.1875 6.3359375 C-10.1875 5.6759375 -10.1875 5.0159375 -10.1875 4.3359375 C-8.578125 2.9765625 -8.578125 2.9765625 -6.4375 1.5859375 C-5.74140625 1.11671875 -5.0453125 0.6475 -4.328125 0.1640625 C-2.1875 -0.6640625 -2.1875 -0.6640625 0 0 Z " fill="#2479B1" transform="translate(77.1875,108.6640625)"/>
<path d="M0 0 C18.15 0 36.3 0 55 0 C55.495 2.475 55.495 2.475 56 5 C56.66 5.33 57.32 5.66 58 6 C55.69 6 53.38 6 51 6 C51 5.34 51 4.68 51 4 C49.68 3.67 48.36 3.34 47 3 C46.67 3.66 46.34 4.32 46 5 C45.34 5.33 44.68 5.66 44 6 C44.33 4.35 44.66 2.7 45 1 C30.15 1 15.3 1 0 1 C0 0.67 0 0.34 0 0 Z " fill="#959595" transform="translate(132,175)"/>
<path d="M0 0 C3.3221347 1.4623392 5.69313983 3.30806606 8.3125 5.8125 C9.03050781 6.47894531 9.74851562 7.14539063 10.48828125 7.83203125 C12 10 12 10 11.84375 12.37109375 C11.5653125 13.23863281 11.286875 14.10617188 11 15 C10.72542969 16.01578125 10.45085938 17.0315625 10.16796875 18.078125 C9.84441406 19.12484375 9.52085938 20.1715625 9.1875 21.25 C8.87167969 22.30703125 8.55585938 23.3640625 8.23046875 24.453125 C7 27 7 27 4.86328125 27.859375 C4.24839844 27.90578125 3.63351563 27.9521875 3 28 C3.53791414 24.66493233 4.46962147 21.66014493 5.625 18.5 C7.22983953 13.74505943 7.22983953 13.74505943 6 9 C4.49605041 7.37556826 2.94708911 5.88334817 1.27734375 4.4296875 C0 3 0 3 0 0 Z " fill="#403D39" transform="translate(15,144)"/>
<path d="M0 0 C4.18621532 1.04655383 6.5835584 2.41868857 10 5 C10.33 5.99 10.66 6.98 11 8 C10.01 8 9.02 8 8 8 C7.34 9.32 6.68 10.64 6 12 C2.51460083 11.35455571 -0.02819057 9.89865603 -3 8 C-2.01 5.36 -1.02 2.72 0 0 Z " fill="#2479B1" transform="translate(146,108)"/>
<path d="M0 0 C-0.375 1.9375 -0.375 1.9375 -1 4 C-1.99 4.495 -1.99 4.495 -3 5 C-2.44570312 5.59167969 -1.89140625 6.18335937 -1.3203125 6.79296875 C-0.59585938 7.58316406 0.12859375 8.37335938 0.875 9.1875 C1.59429687 9.96480469 2.31359375 10.74210937 3.0546875 11.54296875 C4.9817092 13.97689776 6.01300111 16.07536646 7 19 C1.11426619 18.12803943 -3.22544755 13.29879585 -7 9 C-7.8125 6.1875 -7.8125 6.1875 -8 4 C-2.25 0 -2.25 0 0 0 Z " fill="#C77F21" transform="translate(82,117)"/>
<path d="M0 0 C3.63 0 7.26 0 11 0 C11 0.66 11 1.32 11 2 C8.69 2.33 6.38 2.66 4 3 C3.67 4.98 3.34 6.96 3 9 C5.31 9 7.62 9 10 9 C10 9.66 10 10.32 10 11 C7.69 11 5.38 11 3 11 C3 13.97 3 16.94 3 20 C2.01 20 1.02 20 0 20 C0 13.4 0 6.8 0 0 Z " fill="#F3F1EF" transform="translate(35,145)"/>
<path d="M0 0 C3.32745192 0.57369861 4.79561344 1.46665942 7 4 C8.13500977 6.00537109 8.13500977 6.00537109 9.19140625 8.2734375 C9.57876953 9.0984375 9.96613281 9.9234375 10.36523438 10.7734375 C10.76033203 11.63195313 11.15542969 12.49046875 11.5625 13.375 C11.96146484 14.22578125 12.36042969 15.0765625 12.77148438 15.953125 C14.62597941 19.92836978 16.43861648 23.89820329 18 28 C17.01 28 16.02 28 15 28 C11.33284077 22.99932832 8.33113303 17.34488426 6.25 11.5 C5.14171539 8.39680309 4.26343328 6.357743 2 4 C1.01 3.67 0.02 3.34 -1 3 C-0.67 2.01 -0.34 1.02 0 0 Z " fill="#424241" transform="translate(67,49)"/>
<path d="M0 0 C3.63 0 7.26 0 11 0 C11 0.99 11 1.98 11 3 C12.32 2.67 13.64 2.34 15 2 C15 2.66 15 3.32 15 4 C13.35 4 11.7 4 10 4 C10.33 4.33 10.66 4.66 11 5 C9 7 9 7 5.7421875 7.1953125 C4.46601562 7.17210937 3.18984375 7.14890625 1.875 7.125 C-0.04699219 7.09792969 -0.04699219 7.09792969 -2.0078125 7.0703125 C-3.48894531 7.03550781 -3.48894531 7.03550781 -5 7 C-5 5.68 -5 4.36 -5 3 C-3.35 2.67 -1.7 2.34 0 2 C0 1.34 0 0.68 0 0 Z " fill="#3E3E3E" transform="translate(36,185)"/>
<path d="M0 0 C2.44998929 2.903691 4.70084924 5.9068208 6.8125 9.0625 C7.25207031 9.71347656 7.69164063 10.36445312 8.14453125 11.03515625 C9.19606862 13.45033111 8.88240486 14.56932648 8 17 C4.75480334 16.69593558 3.38099448 16.43719323 1.19921875 13.93359375 C0.70035156 13.10988281 0.20148437 12.28617188 -0.3125 11.4375 C-0.82425781 10.61121094 -1.33601563 9.78492187 -1.86328125 8.93359375 C-2.23839844 8.29550781 -2.61351562 7.65742187 -3 7 C-2.01 6.67 -1.02 6.34 0 6 C0 4.02 0 2.04 0 0 Z " fill="#060709" transform="translate(62,83)"/>
<path d="M0 0 C4.62 0 9.24 0 14 0 C14 0.66 14 1.32 14 2 C12.02 2 10.04 2 8 2 C8 7.94 8 13.88 8 20 C7.01 20 6.02 20 5 20 C5 14.06 5 8.12 5 2 C3.35 2 1.7 2 0 2 C0 1.34 0 0.68 0 0 Z " fill="#F3F4F5" transform="translate(111,145)"/>
<path d="M0 0 C1.98 0.495 1.98 0.495 4 1 C3.34 1 2.68 1 2 1 C2.0407666 1.87736816 2.0815332 2.75473633 2.12353516 3.65869141 C2.27038138 6.9347917 2.40709582 10.21099797 2.53710938 13.48779297 C2.59526839 14.90202631 2.65738293 16.31610304 2.72363281 17.72998047 C2.81852755 19.7702174 2.8988663 21.81060677 2.9765625 23.8515625 C3.02893066 25.07697754 3.08129883 26.30239258 3.13525391 27.56494141 C2.99673117 31.08301885 2.27974488 33.73730571 1 37 C-1.48498385 33.27252422 -1.16619121 30.5585981 -0.9765625 26.26953125 C-0.95153656 25.51911057 -0.92651062 24.76868988 -0.90072632 23.99552917 C-0.81860934 21.60072086 -0.72198948 19.20674761 -0.625 16.8125 C-0.56675183 15.18818506 -0.50944873 13.56383593 -0.453125 11.93945312 C-0.31304326 7.95915586 -0.15995317 3.97954625 0 0 Z " fill="#4B3516" transform="translate(111,85)"/>
<path d="M0 0 C2 3 2 3 1.87890625 5.7890625 C0.8383496 9.59056278 -0.80644388 12.15206269 -3.0625 15.375 C-3.79597656 16.43460938 -4.52945313 17.49421875 -5.28515625 18.5859375 C-5.85105469 19.38257813 -6.41695313 20.17921875 -7 21 C-8.37290359 16.88128923 -7.02290698 13.91445524 -5.75 9.9375 C-5.53214844 9.20466797 -5.31429687 8.47183594 -5.08984375 7.71679688 C-3.37246842 2.24831228 -3.37246842 2.24831228 0 0 Z " fill="#D69839" transform="translate(131,109)"/>
<path d="M0 0 C0.66 0.66 1.32 1.32 2 2 C1.96712417 4.72869407 1.43602229 7.2966618 1 10 C2.12535156 9.98259766 2.12535156 9.98259766 3.2734375 9.96484375 C9.92337417 9.9062171 16.40004873 10.18230692 23 11 C23 11.66 23 12.32 23 13 C13.43 12.67 3.86 12.34 -6 12 C-5.67 10.68 -5.34 9.36 -5 8 C-3.35 8.33 -1.7 8.66 0 9 C-0.185625 7.88625 -0.37125 6.7725 -0.5625 5.625 C-1 2 -1 2 0 0 Z " fill="#9C9B9B" transform="translate(51,180)"/>
<path d="M0 0 C2.64 0 5.28 0 8 0 C7.67 0.66 7.34 1.32 7 2 C5.68 2 4.36 2 3 2 C3 4.64 3 7.28 3 10 C3.99 10.33 4.98 10.66 6 11 C5.01 11 4.02 11 3 11 C3 13.97 3 16.94 3 20 C2.01 20 1.02 20 0 20 C0 13.4 0 6.8 0 0 Z " fill="#F3F5F6" transform="translate(127,145)"/>
<path d="M0 0 C2.91517292 1.07401108 4.77810176 1.77810176 7 4 C7.56787546 7.7121122 7.54051158 11.28598975 7 15 C4.625 18.1875 4.625 18.1875 2 20 C1.34 20 0.68 20 0 20 C-0.33 19.01 -0.66 18.02 -1 17 C-0.01 16.67 0.98 16.34 2 16 C3.1845131 12.44646071 3.26641894 9.72986522 3 6 C1.5833253 4.2488427 1.5833253 4.2488427 0 3 C0 2.01 0 1.02 0 0 Z " fill="#F2F1EF" transform="translate(96,145)"/>
<path d="M0 0 C1.57156655 3.1431331 0.11705576 5.365464 -0.9375 8.625 C-1.31777344 9.81351563 -1.69804688 11.00203125 -2.08984375 12.2265625 C-2.39019531 13.14179687 -2.69054687 14.05703125 -3 15 C-2.60167969 14.36191406 -2.20335938 13.72382812 -1.79296875 13.06640625 C-1.26316406 12.24011719 -0.73335938 11.41382812 -0.1875 10.5625 C0.33457031 9.73878906 0.85664062 8.91507813 1.39453125 8.06640625 C3 6 3 6 6 5 C4.6825683 8.54887104 3.12916347 11.64151254 1.0625 14.8125 C0.55847656 15.60269531 0.05445312 16.39289063 -0.46484375 17.20703125 C-0.97144531 17.79871094 -1.47804688 18.39039063 -2 19 C-2.99 19 -3.98 19 -5 19 C-6.4450885 15.18018009 -5.50914617 12.70629313 -4.1875 8.9375 C-3.83042969 7.89464844 -3.47335938 6.85179688 -3.10546875 5.77734375 C-2 3 -2 3 0 0 Z " fill="#1F180D" transform="translate(127,113)"/>
<path d="M0 0 C5.29877676 -0.50464541 7.90716575 0.63478073 12 4 C14.53577048 7.10836382 15.06794026 8.27983328 14.6875 12.3125 C14.460625 13.199375 14.23375 14.08625 14 15 C13.01 15 12.02 15 11 15 C11.04125 13.80375 11.0825 12.6075 11.125 11.375 C10.98367911 9.12788863 10.98367911 9.12788863 10 7 C7.50698414 5.00813554 4.98677989 3.58786567 2.15234375 2.12890625 C1.44207031 1.75636719 0.73179687 1.38382813 0 1 C0 0.67 0 0.34 0 0 Z " fill="#3F3F3F" transform="translate(173,59)"/>
<path d="M0 0 C2.475 0.99 2.475 0.99 5 2 C5 2.66 5 3.32 5 4 C7.97 4 10.94 4 14 4 C13.67 4.66 13.34 5.32 13 6 C10.39576408 6.02697137 7.79180756 6.04682489 5.1875 6.0625 C4.44951172 6.07087891 3.71152344 6.07925781 2.95117188 6.08789062 C-0.29922068 6.10259828 -2.89404895 6.03531702 -6 5 C-5.65555119 7.47266765 -5.65555119 7.47266765 -5 10 C-4.34 10.33 -3.68 10.66 -3 11 C-3 11.66 -3 12.32 -3 13 C-4.32 12.67 -5.64 12.34 -7 12 C-7 9.36 -7 6.72 -7 4 C-4.69 3.34 -2.38 2.68 0 2 C0 1.34 0 0.68 0 0 Z " fill="#262525" transform="translate(178,177)"/>
<path d="M0 0 C3.3907519 1.45317939 5.41300312 3.41300312 8 6 C8.99 6.33 9.98 6.66 11 7 C10.67 5.68 10.34 4.36 10 3 C10.66 3.33 11.32 3.66 12 4 C12 4.66 12 5.32 12 6 C13.65 6 15.3 6 17 6 C17 6.33 17 6.66 17 7 C19.31 7.33 21.62 7.66 24 8 C24 8.33 24 8.66 24 9 C16.08 9 8.16 9 0 9 C0.33 8.34 0.66 7.68 1 7 C3.0625 6.375 3.0625 6.375 5 6 C3.35 4.02 1.7 2.04 0 0 Z " fill="#20170B" transform="translate(60,130)"/>
<path d="M0 0 C0.33 0.66 0.66 1.32 1 2 C-0.36328125 4.53125 -0.36328125 4.53125 -2.3125 7.5 C-2.94800781 8.4796875 -3.58351562 9.459375 -4.23828125 10.46875 C-6 13 -6 13 -8 15 C-10.125 14.625 -10.125 14.625 -12 14 C-11.48474397 8.71862571 -9.74522883 5.42778844 -7 1 C-6.67 1.66 -6.34 2.32 -6 3 C-6.77734375 5.1640625 -6.77734375 5.1640625 -7.9375 7.625 C-8.31777344 8.44226563 -8.69804687 9.25953125 -9.08984375 10.1015625 C-9.39019531 10.72804688 -9.69054687 11.35453125 -10 12 C-6.29341025 8.59394455 -4.15782652 5.52116033 -2 1 C-1.34 0.67 -0.68 0.34 0 0 Z " fill="#0B0C0D" transform="translate(150,77)"/>
<path d="M0 0 C0.33 0.66 0.66 1.32 1 2 C2.98 1.67 4.96 1.34 7 1 C7 1.66 7 2.32 7 3 C3.39006828 4.13480527 0.0157673 4.10015767 -3.75 4.0625 C-4.92046875 4.05347656 -6.0909375 4.04445312 -7.296875 4.03515625 C-8.18890625 4.02355469 -9.0809375 4.01195312 -10 4 C-10 4.99 -10 5.98 -10 7 C-12.97 6.505 -12.97 6.505 -16 6 C-15.67 4.68 -15.34 3.36 -15 2 C-14.00097656 1.93941406 -13.00195312 1.87882813 -11.97265625 1.81640625 C-10.68230469 1.73261719 -9.39195313 1.64882812 -8.0625 1.5625 C-6.77472656 1.48128906 -5.48695312 1.40007812 -4.16015625 1.31640625 C-1.13976043 1.35080812 -1.13976043 1.35080812 0 0 Z " fill="#1F1E1E" transform="translate(44,179)"/>
<path d="M0 0 C8.25 0 16.5 0 25 0 C24.67 0.99 24.34 1.98 24 3 C15.75 2.67 7.5 2.34 -1 2 C-0.67 1.34 -0.34 0.68 0 0 Z " fill="#161616" transform="translate(183,173)"/>
<path d="M0 0 C1.32 0.66 2.64 1.32 4 2 C3.835 2.66 3.67 3.32 3.5 4 C2.87816701 7.73099794 2.93591074 11.21873378 3 15 C4.98 15.99 6.96 16.98 9 18 C8.67 19.32 8.34 20.64 8 22 C8 21.01 8 20.02 8 19 C4.37 18.01 0.74 17.02 -3 16 C-3.66 17.32 -4.32 18.64 -5 20 C-5 17 -5 17 -3 14 C-2.01 14 -1.02 14 0 14 C0.19456705 12.04235617 0.38044247 10.08384679 0.5625 8.125 C0.66691406 7.03445312 0.77132812 5.94390625 0.87890625 4.8203125 C1.22639404 2.04847977 1.22639404 2.04847977 0 0 Z " fill="#18140D" transform="translate(122,88)"/>
<path d="M0 0 C0.66 0 1.32 0 2 0 C2.39832031 0.78246094 2.79664062 1.56492187 3.20703125 2.37109375 C3.73683594 3.38300781 4.26664062 4.39492187 4.8125 5.4375 C5.33457031 6.44683594 5.85664062 7.45617187 6.39453125 8.49609375 C7.81418484 11.28691218 7.81418484 11.28691218 11 12 C10.484375 11.071875 9.96875 10.14375 9.4375 9.1875 C8 6 8 6 9 3 C9.70226141 4.24176695 10.38629109 5.49385599 11.0625 6.75 C11.44535156 7.44609375 11.82820313 8.1421875 12.22265625 8.859375 C13.1312406 11.36140628 12.88336837 12.5332355 12 15 C9.35890834 14.62270119 8.21907131 14.23374595 6.3671875 12.2578125 C5.87476562 11.55398437 5.38234375 10.85015625 4.875 10.125 C4.37742187 9.42632812 3.87984375 8.72765625 3.3671875 8.0078125 C0 3.06285714 0 3.06285714 0 0 Z " fill="#060708" transform="translate(73,77)"/>
<path d="M0 0 C0.66 0.33 1.32 0.66 2 1 C1.67 3.64 1.34 6.28 1 9 C3.31 9.66 5.62 10.32 8 11 C8 11.33 8 11.66 8 12 C-1.9 12 -11.8 12 -22 12 C-22 11.67 -22 11.34 -22 11 C-14.74 10.67 -7.48 10.34 0 10 C0 6.7 0 3.4 0 0 Z " fill="#9C9C9C" transform="translate(170,180)"/>
<path d="M0 0 C2.3515625 0.765625 2.3515625 0.765625 4.2890625 1.953125 C7.38748611 3.17371612 9.3748387 1.98337565 12.3515625 0.765625 C10.71743807 2.47402781 9.48250156 3.70015547 7.3515625 4.765625 C6.3615625 6.250625 6.3615625 6.250625 5.3515625 7.765625 C4.0315625 6.115625 2.7115625 4.465625 1.3515625 2.765625 C-3.49668618 3.18118917 -5.52880612 5.14010745 -8.6484375 8.765625 C-9.94363745 10.93183044 -9.94363745 10.93183044 -10.6484375 12.765625 C-11.1484375 10.203125 -11.1484375 10.203125 -10.6484375 6.765625 C-7.77708366 3.20263119 -4.82200006 -0.42672567 0 0 Z " fill="#11100E" transform="translate(67.6484375,116.234375)"/>
<path d="M0 0 C2.954889 3.5458668 5.45934985 7.63781033 7 12 C6.67 12.99 6.34 13.98 6 15 C5.01 15 4.02 15 3 15 C2.13353333 13.56988027 1.28218171 12.13059381 0.4375 10.6875 C-0.03816406 9.88699219 -0.51382813 9.08648437 -1.00390625 8.26171875 C-2 6 -2 6 -1 3 C-0.67 3 -0.34 3 0 3 C0 2.01 0 1.02 0 0 Z " fill="#252424" transform="translate(56,66)"/>
<path d="M0 0 C0.33 0.99 0.66 1.98 1 3 C-0.39949349 5.50973885 -1.82628407 7.82169398 -3.4375 10.1875 C-3.87126953 10.84169922 -4.30503906 11.49589844 -4.75195312 12.16992188 C-5.82545983 13.78608033 -6.9115597 15.39386099 -8 17 C-8.66 15.68 -9.32 14.36 -10 13 C-8.71389867 11.0170112 -7.42150861 9.03866624 -6.125 7.0625 C-5.40570313 5.96035156 -4.68640625 4.85820313 -3.9453125 3.72265625 C-2 1 -2 1 0 0 Z " fill="#313131" transform="translate(183,76)"/>
<path d="M0 0 C1.45880109 0.14107747 2.91703551 0.28802415 4.375 0.4375 C5.59316406 0.55931641 5.59316406 0.55931641 6.8359375 0.68359375 C9 1 9 1 11 2 C10.50168276 5.68754757 9.89932357 7.60490662 7 10 C5.875 6.25 5.875 6.25 7 4 C4.69 3.67 2.38 3.34 0 3 C0 2.01 0 1.02 0 0 Z " fill="#575552" transform="translate(202,135)"/>
<path d="M0 0 C0.66 1.32 1.32 2.64 2 4 C0.59627198 5.20276695 -0.82352097 6.38680519 -2.25 7.5625 C-3.43335938 8.55443359 -3.43335938 8.55443359 -4.640625 9.56640625 C-7 11 -7 11 -9.296875 10.71484375 C-9.85890625 10.47894531 -10.4209375 10.24304688 -11 10 C-3.70159453 2.51708428 -3.70159453 2.51708428 0 0 Z " fill="#C47C20" transform="translate(164,124)"/>
<path d="M0 0 C5.17830201 6.58233142 8.33536982 13.82817912 10 22 C8.078125 21.62890625 8.078125 21.62890625 6 21 C4.75 18.9375 4.75 18.9375 4 17 C4.66 17 5.32 17 6 17 C5.566875 15.989375 5.13375 14.97875 4.6875 13.9375 C4.41679688 13.30199219 4.14609375 12.66648437 3.8671875 12.01171875 C3.30040131 10.69687692 2.72269249 9.38667573 2.1328125 8.08203125 C0.84352435 5.20262105 0 3.19320442 0 0 Z " fill="#212426" transform="translate(65,71)"/>
<path d="M0 0 C0.6796875 1.71875 0.6796875 1.71875 1 4 C-0.1796875 6.21875 -0.1796875 6.21875 -1.875 8.5 C-3.96687893 11.34106348 -5.3798331 13.50162261 -6 17 C-6.66 17 -7.32 17 -8 17 C-9.00635621 10.62641069 -5.6106256 5.96694869 -2 1 C-1.34 0.67 -0.68 0.34 0 0 Z " fill="#32312F" transform="translate(208,143)"/>
<path d="M0 0 C4.875 3.75 4.875 3.75 6 6 C6.04022391 8.3329866 6.04320247 10.66706666 6 13 C4.66666667 13 3.33333333 13 2 13 C1.814375 11.14375 1.814375 11.14375 1.625 9.25 C1.24253695 6.1237803 0.69450477 3.71120763 -1 1 C-0.67 0.67 -0.34 0.34 0 0 Z " fill="#F2EEE8" transform="translate(79,145)"/>
<path d="M0 0 C0.5775 0.37125 1.155 0.7425 1.75 1.125 C4 2.29166667 4 2.29166667 6.25 1.125 C6.8275 0.75375 7.405 0.3825 8 0 C9 1 9 1 9.0625 4.5625 C9.041875 5.696875 9.02125 6.83125 9 8 C8.34 7.67 7.68 7.34 7 7 C7.33 6.34 7.66 5.68 8 5 C7.34 5 6.68 5 6 5 C5.67 5.99 5.34 6.98 5 8 C4.01 7.67 3.02 7.34 2 7 C2 5.35 2 3.7 2 2 C1.34 2 0.68 2 0 2 C-0.33 2.99 -0.66 3.98 -1 5 C-0.67 3.35 -0.34 1.7 0 0 Z " fill="#C2D3E1" transform="translate(105,181)"/>
<path d="M0 0 C1.18851563 0.00902344 2.37703125 0.01804688 3.6015625 0.02734375 C4.51679687 0.03894531 5.43203125 0.05054688 6.375 0.0625 C6.375 2.0425 6.375 4.0225 6.375 6.0625 C5.385 6.0625 4.395 6.0625 3.375 6.0625 C3.375 5.0725 3.375 4.0825 3.375 3.0625 C-2.565 3.5575 -2.565 3.5575 -8.625 4.0625 C-8.625 3.0725 -8.625 2.0825 -8.625 1.0625 C-5.74084117 -0.37957941 -3.20778472 -0.03144887 0 0 Z " fill="#B8B8B8" transform="translate(43.625,181.9375)"/>
<path d="M0 0 C1.21236328 0.04060547 1.21236328 0.04060547 2.44921875 0.08203125 C3.06410156 0.11683594 3.67898437 0.15164062 4.3125 0.1875 C3.9825 1.1775 3.6525 2.1675 3.3125 3.1875 C2.19875 3.290625 1.085 3.39375 -0.0625 3.5 C-1.25875 3.726875 -2.455 3.95375 -3.6875 4.1875 C-5.6326 7.10515 -6.14026317 8.81287285 -6.6875 12.1875 C-8.20504003 9.77728936 -8.71066906 8.50414378 -8.5 5.625 C-6.94450785 0.95852356 -4.81771499 -0.20946587 0 0 Z " fill="#F3F3F2" transform="translate(169.6875,144.8125)"/>
<path d="M0 0 C0.33 0.66 0.66 1.32 1 2 C0.505 2.969375 0.01 3.93875 -0.5 4.9375 C-2.41155951 7.93413357 -2.41155951 7.93413357 -1 11 C2.465 6.05 2.465 6.05 6 1 C6.33 1.66 6.66 2.32 7 3 C6.12360894 4.49076829 5.22303672 5.96733869 4.3125 7.4375 C3.56419922 8.67306641 3.56419922 8.67306641 2.80078125 9.93359375 C0.61900552 12.43719323 -0.75480334 12.69593558 -4 13 C-5.0169313 10.34501768 -5.13022151 9.30844625 -4.00390625 6.640625 C-3.52824219 5.85171875 -3.05257812 5.0628125 -2.5625 4.25 C-2.08941406 3.45078125 -1.61632812 2.6515625 -1.12890625 1.828125 C-0.75636719 1.22484375 -0.38382813 0.6215625 0 0 Z " fill="#050606" transform="translate(152,82)"/>
<path d="M0 0 C0.33 0.99 0.66 1.98 1 3 C0.67 3.66 0.34 4.32 0 5 C3.3 4.67 6.6 4.34 10 4 C8 7 8 7 5.65234375 7.546875 C4.75644531 7.61390625 3.86054688 7.6809375 2.9375 7.75 C2.03902344 7.82734375 1.14054687 7.9046875 0.21484375 7.984375 C-0.51605469 7.98953125 -1.24695313 7.9946875 -2 8 C-3 7 -3 7 -3.25 4.5625 C-3.1675 3.716875 -3.085 2.87125 -3 2 C-2.01 1.34 -1.02 0.68 0 0 Z " fill="#3A3A3A" transform="translate(20,170)"/>
<path d="M0 0 C0.99 0 1.98 0 3 0 C3 4.62 3 9.24 3 14 C2.01 14.33 1.02 14.66 0 15 C0 10.05 0 5.1 0 0 Z " fill="#F4F5F7" transform="translate(154,145)"/>
<path d="M0 0 C0 3.96946595 -1.45802616 5.34373237 -3.8125 8.5 C-4.52019531 9.4590625 -5.22789062 10.418125 -5.95703125 11.40625 C-9.08097182 15.37240017 -9.08097182 15.37240017 -11 17 C-11.66 17 -12.32 17 -13 17 C-11.3867231 13.2999845 -9.06926004 10.46979051 -6.5 7.375 C-5.7059375 6.41335937 -4.911875 5.45171875 -4.09375 4.4609375 C-2 2 -2 2 0 0 Z " fill="#050607" transform="translate(142,73)"/>
<path d="M0 0 C-0.33 0.66 -0.66 1.32 -1 2 C-8.20347961 4.3237031 -16.65774154 3.08774199 -24 2 C-24 1.67 -24 1.34 -24 1 C-15.98866917 0.40891367 -8.03770278 -0.14101233 0 0 Z " fill="#0B1821" transform="translate(61,137)"/>
<path d="M0 0 C1.32 0.33 2.64 0.66 4 1 C3.09915739 2.65454759 2.17872392 4.2984402 1.25 5.9375 C0.73953125 6.85402344 0.2290625 7.77054687 -0.296875 8.71484375 C-2 11 -2 11 -6 12 C-4.02 8.04 -2.04 4.08 0 0 Z " fill="#5F97BD" transform="translate(163,86)"/>
<path d="M0 0 C1.9375 0.375 1.9375 0.375 4 1 C4.33 1.66 4.66 2.32 5 3 C3.8553125 3.5878125 3.8553125 3.5878125 2.6875 4.1875 C-0.25691758 6.17327 -1.27467054 7.96013381 -3 11 C-3.66 11 -4.32 11 -5 11 C-4.54663921 6.12637153 -3.2910841 3.60957611 0 0 Z " fill="#3A3A39" transform="translate(153,49)"/>
<path d="M0 0 C2.475 0.495 2.475 0.495 5 1 C5.38218767 2.65614657 5.71395102 4.32457024 6 6 C5 7 5 7 2.4375 7.0625 C1.2309375 7.0315625 1.2309375 7.0315625 0 7 C0 4.69 0 2.38 0 0 Z " fill="#F1AB3F" transform="translate(130,147)"/>
<path d="M0 0 C2.9746228 2.82984027 5.39997658 5.76065023 7.75 9.125 C8.67039062 10.42824219 8.67039062 10.42824219 9.609375 11.7578125 C11 14 11 14 11 16 C7.1298025 14.70993417 6.19272349 12.96084925 3.8125 9.6875 C3.09707031 8.72199219 2.38164063 7.75648437 1.64453125 6.76171875 C0 4 0 4 0 0 Z " fill="#DB9D3B" transform="translate(82,120)"/>
<path d="M0 0 C-0.1875 1.875 -0.1875 1.875 -1 4 C-3.5625 5.25 -3.5625 5.25 -6 6 C-3.525 9.465 -3.525 9.465 -1 13 C-4 13 -4 13 -6.25 10.8125 C-8 8 -8 8 -8.0625 5.375 C-6.50828972 1.90088291 -3.87665517 0 0 0 Z " fill="#412C11" transform="translate(82,117)"/>
<path d="M0 0 C0.33 0.66 0.66 1.32 1 2 C1.99 2.33 2.98 2.66 4 3 C2.02 5.64 0.04 8.28 -2 11 C-2.66 10.67 -3.32 10.34 -4 10 C-3.43454163 6.04179141 -2.19097652 3.3340947 0 0 Z " fill="#327BAB" transform="translate(153,83)"/>
<path d="M0 0 C1.32 0.66 2.64 1.32 4 2 C3.23997083 3.31878578 2.46656347 4.6298684 1.6875 5.9375 C1.25824219 6.66839844 0.82898438 7.39929688 0.38671875 8.15234375 C-1 10 -1 10 -4 11 C-3.39301257 6.87248551 -1.96189209 3.6678852 0 0 Z " fill="#2375AB" transform="translate(144,78)"/>
<path d="M0 0 C4.95 0 9.9 0 15 0 C15 0.99 15 1.98 15 3 C11.37 3 7.74 3 4 3 C4 2.34 4 1.68 4 1 C2.68 0.67 1.36 0.34 0 0 Z " fill="#F7F7F7" transform="translate(84,175)"/>
<path d="M0 0 C2.82144057 2.49199092 4.37080031 5.25243979 6.125 8.5625 C6.64320312 9.53316406 7.16140625 10.50382812 7.6953125 11.50390625 C8.47544804 12.99644102 9.24683714 14.49367427 10 16 C9.01 16 8.02 16 7 16 C5.00180084 13.76671858 3.34172876 11.68345751 2 9 C2.33 8.34 2.66 7.68 3 7 C2.34 6.67 1.68 6.34 1 6 C0.375 2.9375 0.375 2.9375 0 0 Z " fill="#100E0B" transform="translate(79,110)"/>
<path d="M0 0 C4.62 0 9.24 0 14 0 C14 0.99 14 1.98 14 3 C10.37 3 6.74 3 3 3 C3 2.34 3 1.68 3 1 C2.01 0.67 1.02 0.34 0 0 Z " fill="#ECECEB" transform="translate(118,175)"/>
<path d="M0 0 C0.66 0 1.32 0 2 0 C2.13277344 0.69867188 2.26554687 1.39734375 2.40234375 2.1171875 C2.57894531 3.02726562 2.75554688 3.93734375 2.9375 4.875 C3.19853516 6.23238281 3.19853516 6.23238281 3.46484375 7.6171875 C3.89963701 9.99956317 3.89963701 9.99956317 5 12 C4.01 12.33 3.02 12.66 2 13 C-0.40385693 8.79325038 -1.45226612 5.86186074 -1 1 C-0.67 0.67 -0.34 0.34 0 0 Z " fill="#2F2F2F" transform="translate(38,67)"/>
<path d="M0 0 C2 1.625 2 1.625 4 4 C4.25 7.25 4.25 7.25 4 10 C1.75 10.375 1.75 10.375 -1 10 C-5 5.02702703 -5 5.02702703 -5 2 C-4.34 2 -3.68 2 -3 2 C-2.525625 2.804375 -2.05125 3.60875 -1.5625 4.4375 C-0.20016328 7.2918076 -0.20016328 7.2918076 3 8 C2.505 7.05125 2.01 6.1025 1.5 5.125 C0 2 0 2 0 0 Z " fill="#030202" transform="translate(72,85)"/>
<path d="M0 0 C0.33 0 0.66 0 1 0 C1.99 3.3 2.98 6.6 4 10 C4.66 8.68 5.32 7.36 6 6 C7 8 7 8 6.0625 11.125 C5.711875 12.07375 5.36125 13.0225 5 14 C4.34 14 3.68 14 3 14 C2.29866401 12.42274653 1.614417 10.83788667 0.9375 9.25 C0.55464844 8.36828125 0.17179687 7.4865625 -0.22265625 6.578125 C-1.04600008 3.84743691 -0.9773992 2.63098653 0 0 Z " fill="#020303" transform="translate(85,102)"/>
<path d="M0 0 C1.98 0 3.96 0 6 0 C6.33 0.99 6.66 1.98 7 3 C5.7934375 2.9690625 5.7934375 2.9690625 4.5625 2.9375 C2.06645115 2.70366379 2.06645115 2.70366379 1 4 C-0.85772162 3.91015699 -2.71247985 3.75388139 -4.5625 3.5625 C-6.08037109 3.40974609 -6.08037109 3.40974609 -7.62890625 3.25390625 C-8.41136719 3.17011719 -9.19382813 3.08632812 -10 3 C-10 2.67 -10 2.34 -10 2 C-6.7 2 -3.4 2 0 2 C0 1.34 0 0.68 0 0 Z " fill="#2D2C2C" transform="translate(185,183)"/>
<path d="M0 0 C2.74277578 3.19990508 4.6302836 6.00499382 6 10 C4.25 9.875 4.25 9.875 2 9 C-0.25 5.9375 -0.25 5.9375 -2 3 C-1 1 -1 1 0 0 Z " fill="#2173A6" transform="translate(63,88)"/>
<path d="M0 0 C2.27029534 0.39143023 3.83408198 0.88741278 5.75 2.1875 C7.54267046 4.78687216 7.20510719 6.92339216 7 10 C6.4225 9.21625 5.845 8.4325 5.25 7.625 C3.17102363 5.19952756 1.90959667 4.14305583 -1 3 C-0.67 2.01 -0.34 1.02 0 0 Z " fill="#333232" transform="translate(67,49)"/>
<path d="M0 0 C0.99 0 1.98 0 3 0 C3 0.66 3 1.32 3 2 C2.34 2 1.68 2 1 2 C0.7525 2.721875 0.505 3.44375 0.25 4.1875 C-1.10983674 7.24713266 -2.82917754 9.4673738 -5 12 C-5 7.9615526 -4.72510122 6.99573645 -2.6875 3.75 C-2.25824219 3.04359375 -1.82898438 2.3371875 -1.38671875 1.609375 C-0.70029297 0.81273438 -0.70029297 0.81273438 0 0 Z " fill="#15110A" transform="translate(139,118)"/>
<path d="M0 0 C0.33 1.32 0.66 2.64 1 4 C0.46375 3.7525 -0.0725 3.505 -0.625 3.25 C-4.23501351 2.86999858 -6.08530606 5.01552753 -9 7 C-9.99 6.67 -10.98 6.34 -12 6 C-10.75945552 4.98829382 -9.5071298 3.99102203 -8.25 3 C-7.55390625 2.443125 -6.8578125 1.88625 -6.140625 1.3125 C-4 0 -4 0 0 0 Z " fill="#050708" transform="translate(78,106)"/>
<path d="M0 0 C0.99 0.66 1.98 1.32 3 2 C3 2.99 3 3.98 3 5 C-2.28 5 -7.56 5 -13 5 C-13 4.67 -13 4.34 -13 4 C-11.1746875 3.7834375 -11.1746875 3.7834375 -9.3125 3.5625 C-6.17329623 3.17219047 -3.0924866 2.67648144 0 2 C0 1.34 0 0.68 0 0 Z " fill="#E0E0E0" transform="translate(191,183)"/>
<path d="M0 0 C0.66 0 1.32 0 2 0 C2.33 0.99 2.66 1.98 3 3 C0.36 5.97 -2.28 8.94 -5 12 C-5.66 11.67 -6.32 11.34 -7 11 C-5.88368586 9.16136495 -4.75670373 7.32920277 -3.625 5.5 C-2.99851563 4.4790625 -2.37203125 3.458125 -1.7265625 2.40625 C-1.15679687 1.6121875 -0.58703125 0.818125 0 0 Z " fill="#DE9F3C" transform="translate(140,120)"/>
<path d="M0 0 C0.99 0.33 1.98 0.66 3 1 C2.67 3.31 2.34 5.62 2 8 C1.01 7.67 0.02 7.34 -1 7 C-1.625 4.625 -1.625 4.625 -2 2 C-1.34 1.34 -0.68 0.68 0 0 Z " fill="#ABC5D9" transform="translate(117,181)"/>
<path d="M0 0 C4.62 0 9.24 0 14 0 C14 0.33 14 0.66 14 1 C10.04 1 6.08 1 2 1 C2.66 2.32 3.32 3.64 4 5 C3.34 5.66 2.68 6.32 2 7 C0.4375 5.1875 0.4375 5.1875 -1 3 C-0.67 2.01 -0.34 1.02 0 0 Z " fill="#999895" transform="translate(12,139)"/>
<path d="M0 0 C0.99 0 1.98 0 3 0 C7 6.75 7 6.75 7 9 C6.01 9 5.02 9 4 9 C0 2.25 0 2.25 0 0 Z " fill="#343433" transform="translate(78,68)"/>
<path d="M0 0 C0.33 0.66 0.66 1.32 1 2 C3.52733235 2.65555119 3.52733235 2.65555119 6 3 C5.01 3.495 5.01 3.495 4 4 C4 4.66 4 5.32 4 6 C1.36 6 -1.28 6 -4 6 C-3.67 5.34 -3.34 4.68 -3 4 C-2.01 4 -1.02 4 0 4 C0 2.68 0 1.36 0 0 Z " fill="#919191" transform="translate(27,186)"/>
<path d="M0 0 C0.33 0.99 0.66 1.98 1 3 C1.66 3.33 2.32 3.66 3 4 C2.25 6.9375 2.25 6.9375 1 10 C-1.125 10.875 -1.125 10.875 -3 11 C-2.32829194 7.1936543 -1.27253436 3.64793184 0 0 Z " fill="#5C5A57" transform="translate(21,161)"/>
<path d="M0 0 C1.32 0 2.64 0 4 0 C3.3125 2.375 3.3125 2.375 2 5 C-0.625 6.3125 -0.625 6.3125 -3 7 C-3.33 6.01 -3.66 5.02 -4 4 C-3.01 3.67 -2.02 3.34 -1 3 C-0.67 2.01 -0.34 1.02 0 0 Z " fill="#F2EAE0" transform="translate(99,158)"/>
<path d="M0 0 C0.66 0.66 1.32 1.32 2 2 C2.66 1.67 3.32 1.34 4 1 C4.1875 4.375 4.1875 4.375 4 8 C3.01 8.66 2.02 9.32 1 10 C-0.60725635 6.78548731 -0.05748185 3.56387464 0 0 Z " fill="#F2E5D4" transform="translate(160,151)"/>
<path d="M0 0 C2.3125 0.1875 2.3125 0.1875 4 1 C4 2.32 4 3.64 4 5 C1.03 5 -1.94 5 -5 5 C-2.75 2.4375 -2.75 2.4375 0 0 Z " fill="#ACACAD" transform="translate(36,176)"/>
<path d="M0 0 C0.99 0 1.98 0 3 0 C3 2.64 3 5.28 3 8 C2.34 7.34 1.68 6.68 1 6 C0.34 6.66 -0.32 7.32 -1 8 C-1.04241723 5.66705225 -1.04092937 3.33297433 -1 1 C-0.67 0.67 -0.34 0.34 0 0 Z " fill="#F2E6D6" transform="translate(49,150)"/>
<path d="M0 0 C2.86453858 3.41016497 4.34703566 6.90694544 6 11 C5.01 11.33 4.02 11.66 3 12 C2.49440092 10.56445975 1.9957251 9.1264798 1.5 7.6875 C1.2215625 6.88699219 0.943125 6.08648437 0.65625 5.26171875 C0 3 0 3 0 0 Z " fill="#373636" transform="translate(56,66)"/>
<path d="M0 0 C1.32 0.66 2.64 1.32 4 2 C3.67 3.32 3.34 4.64 3 6 C2.34 5.01 1.68 4.02 1 3 C0.34 3 -0.32 3 -1 3 C-1.66 4.98 -2.32 6.96 -3 9 C-3.66 9 -4.32 9 -5 9 C-3.7508258 5.54074837 -2.32472205 2.85306797 0 0 Z " fill="#282828" transform="translate(163,63)"/>
<path d="M0 0 C0.99 0.33 1.98 0.66 3 1 C2.67 1.99 2.34 2.98 2 4 C3.98 4 5.96 4 8 4 C7.01 4.66 6.02 5.32 5 6 C5 6.66 5 7.32 5 8 C4.34 8 3.68 8 3 8 C3 7.34 3 6.68 3 6 C2.01 5.67 1.02 5.34 0 5 C0 3.35 0 1.7 0 0 Z " fill="#C2C2C2" transform="translate(172,182)"/>
<path d="M0 0 C1.54571278 2.31856917 2.79618552 4.50638429 4 7 C3.01 8.485 3.01 8.485 2 10 C-2 4.375 -2 4.375 -2 1 C-1.34 0.67 -0.68 0.34 0 0 Z " fill="#AE7020" transform="translate(98,121)"/>
<path d="M0 0 C0.061875 0.556875 0.12375 1.11375 0.1875 1.6875 C1.33373872 4.94987173 3.49390197 6.68667874 6 9 C1.545 8.01 1.545 8.01 -3 7 C-1.125 1.125 -1.125 1.125 0 0 Z " fill="#0A1013" transform="translate(143,111)"/>
<path d="M0 0 C0.99 0 1.98 0 3 0 C3 0.66 3 1.32 3 2 C4.32 2.33 5.64 2.66 7 3 C6.01 4.32 5.02 5.64 4 7 C3.01 5.68 2.02 4.36 1 3 C0.01 3.66 -0.98 4.32 -2 5 C-1.34 3.35 -0.68 1.7 0 0 Z " fill="#515050" transform="translate(141,71)"/>
<path d="M0 0 C1.65 0 3.3 0 5 0 C5.33 0.99 5.66 1.98 6 3 C6.66 3.33 7.32 3.66 8 4 C5.69 4 3.38 4 1 4 C0.67 2.68 0.34 1.36 0 0 Z " fill="#818080" transform="translate(182,177)"/>
<path d="M0 0 C0 0.66 0 1.32 0 2 C-0.99 2.495 -0.99 2.495 -2 3 C-3.13350534 5.01669827 -3.13350534 5.01669827 -4 7 C-4.28875 6.38125 -4.5775 5.7625 -4.875 5.125 C-5.93720042 2.86674235 -5.93720042 2.86674235 -8 1 C-5.29120665 -0.35439668 -2.99066732 -0.06501451 0 0 Z " fill="#1F7CB8" transform="translate(113,179)"/>
<path d="M0 0 C0 3 0 3 -2.375 5.4375 C-3.24125 6.283125 -4.1075 7.12875 -5 8 C-6.29519995 10.16620544 -6.29519995 10.16620544 -7 12 C-7.4375 9.375 -7.4375 9.375 -7 6 C-4.9050512 3.66877878 -2.53926173 1.82671379 0 0 Z " fill="#080705" transform="translate(64,117)"/>
<path d="M0 0 C2.50037734 2.17424117 3.43628586 3.73045798 4 7 C2.125 6.75 2.125 6.75 0 6 C-1.25 3.9375 -1.25 3.9375 -2 2 C-1.34 2 -0.68 2 0 2 C0 1.34 0 0.68 0 0 Z " fill="#216FAF" transform="translate(71,86)"/>
<path d="M0 0 C0.66 0.99 1.32 1.98 2 3 C2.66 2.67 3.32 2.34 4 2 C3.67 3.32 3.34 4.64 3 6 C0.03 5.505 0.03 5.505 -3 5 C-3 4.01 -3 3.02 -3 2 C-2.01 1.34 -1.02 0.68 0 0 Z " fill="#2D2C2D" transform="translate(145,67)"/>
<path d="M0 0 C0.66 0 1.32 0 2 0 C2 2.31 2 4.62 2 7 C1.01 7.495 1.01 7.495 0 8 C-0.38063221 5.6739143 -0.71269945 3.33944736 -1 1 C-0.67 0.67 -0.34 0.34 0 0 Z " fill="#F3E8DA" transform="translate(83,151)"/>
<path d="M0 0 C0.66 0.33 1.32 0.66 2 1 C-0.475 5.455 -0.475 5.455 -3 10 C-3.66 10 -4.32 10 -5 10 C-3.84414715 6.08788267 -2.64465038 3.1254959 0 0 Z " fill="#272727" transform="translate(172,68)"/>
<path d="M0 0 C0.33 0.99 0.66 1.98 1 3 C-0.9375 5.6875 -0.9375 5.6875 -3 8 C-3.75 6.25 -3.75 6.25 -4 4 C-2.0625 1.75 -2.0625 1.75 0 0 Z " fill="#393939" transform="translate(177,85)"/>
<path d="M0 0 C0.99 0 1.98 0 3 0 C3.66 1.98 4.32 3.96 5 6 C3.68 5.67 2.36 5.34 1 5 C0.67 3.35 0.34 1.7 0 0 Z " fill="#2373A9" transform="translate(79,83)"/>
<path d="M0 0 C0.66 0 1.32 0 2 0 C3.32 2.64 4.64 5.28 6 8 C5.01 8 4.02 8 3 8 C0.89229241 5.11165997 0 3.61537605 0 0 Z " fill="#1C232B" transform="translate(73,77)"/>
<path d="M0 0 C2.475 0.99 2.475 0.99 5 2 C5 2.99 5 3.98 5 5 C2.03 4.505 2.03 4.505 -1 4 C-0.67 2.68 -0.34 1.36 0 0 Z " fill="#504F4F" transform="translate(29,181)"/>
<path d="M0 0 C0.99 0 1.98 0 3 0 C3.33 0.66 3.66 1.32 4 2 C4.99 2.66 5.98 3.32 7 4 C4.69 4.33 2.38 4.66 0 5 C0 3.33333333 0 1.66666667 0 0 Z " fill="#D1D1D1" transform="translate(43,176)"/>
<path d="M0 0 C-0.33 1.32 -0.66 2.64 -1 4 C-2.98 4.33 -4.96 4.66 -7 5 C-7 4.34 -7 3.68 -7 3 C-2.61538462 0 -2.61538462 0 0 0 Z " fill="#CE9439" transform="translate(82,117)"/>
<path d="M0 0 C1.32 0.66 2.64 1.32 4 2 C3.34 3.32 2.68 4.64 2 6 C1.01 6 0.02 6 -1 6 C-0.67 4.02 -0.34 2.04 0 0 Z " fill="#659DC1" transform="translate(144,78)"/>
<path d="M0 0 C1 3 1 3 0.22265625 4.82421875 C-0.8515625 6.54947917 -1.92578125 8.27473958 -3 10 C-3.66 9.34 -4.32 8.68 -5 8 C-3.35 5.36 -1.7 2.72 0 0 Z " fill="#2E2D2D" transform="translate(157,73)"/>
<path d="M0 0 C0.33 0.99 0.66 1.98 1 3 C-0.9375 6.1875 -0.9375 6.1875 -3 9 C-3.33 8.01 -3.66 7.02 -4 6 C-2.0625 2.8125 -2.0625 2.8125 0 0 Z " fill="#303030" transform="translate(156,66)"/>
<path d="M0 0 C0.66 0.33 1.32 0.66 2 1 C0.35 2.65 -1.3 4.3 -3 6 C-3.33 5.34 -3.66 4.68 -4 4 C-4.66 3.67 -5.32 3.34 -6 3 C-4.03533587 1.93224776 -2.03144641 0.93446535 0 0 Z " fill="#616060" transform="translate(45,59)"/>
<path d="M0 0 C-2 2 -2 2 -5 2.25 C-8 2 -8 2 -10 0 C-3.375 -1.125 -3.375 -1.125 0 0 Z " fill="#221D19" transform="translate(30,175)"/>
<path d="M0 0 C1.32 0 2.64 0 4 0 C3.1875 2.4375 3.1875 2.4375 2 5 C1.01 5.33 0.02 5.66 -1 6 C-0.67 4.02 -0.34 2.04 0 0 Z " fill="#F3EADE" transform="translate(153,159)"/>
<path d="M0 0 C0.99 0 1.98 0 3 0 C1.8141763 3.37503669 0.72426311 5.64722731 -2 8 C-1.125 1.125 -1.125 1.125 0 0 Z " fill="#E3A23D" transform="translate(125,122)"/>
<path d="M0 0 C1.98 0.99 3.96 1.98 6 3 C6 3.66 6 4.32 6 5 C4.35 4.67 2.7 4.34 1 4 C0.67 2.68 0.34 1.36 0 0 Z " fill="#D2973B" transform="translate(142,117)"/>
<path d="M0 0 C2.99324263 1.0975223 3.84610901 1.67682892 5.25 4.625 C5.4975 5.40875 5.745 6.1925 6 7 C5.01 7.495 5.01 7.495 4 8 C3.54625 7.21625 3.0925 6.4325 2.625 5.625 C1.11571258 2.96301969 1.11571258 2.96301969 -1 1 C-0.67 0.67 -0.34 0.34 0 0 Z " fill="#2E2D2D" transform="translate(59,63)"/>
<path d="M0 0 C2 2 2 2 2.125 4.625 C2.08375 5.40875 2.0425 6.1925 2 7 C1.01 7 0.02 7 -1 7 C-0.67 4.69 -0.34 2.38 0 0 Z " fill="#939393" transform="translate(51,180)"/>
<path d="M0 0 C0.33 0 0.66 0 1 0 C1 1.65 1 3.3 1 5 C1.99 5 2.98 5 4 5 C4.33 6.32 4.66 7.64 5 9 C3.0625 8.625 3.0625 8.625 1 8 C-0.35439668 5.29120665 -0.06501451 2.99066732 0 0 Z " fill="#635541" transform="translate(199,155)"/>
<path d="M0 0 C0.66 0 1.32 0 2 0 C3.03789581 1.64333504 4.03567924 3.31243867 5 5 C5.66 5.66 6.32 6.32 7 7 C6.01 7.33 5.02 7.66 4 8 C0 2.25 0 2.25 0 0 Z " fill="#0B141B" transform="translate(67,87)"/>
<path d="M0 0 C0.99 0 1.98 0 3 0 C3.33 0.99 3.66 1.98 4 3 C3.01 3.99 2.02 4.98 1 6 C0.34 5.34 -0.32 4.68 -1 4 C-0.625 1.875 -0.625 1.875 0 0 Z " fill="#494848" transform="translate(61,79)"/>
</svg>
